<?xml version="1.0" encoding="UTF-8" standalone="no" ?>
<!DOCTYPE svg PUBLIC "-//W3C//DTD SVG 1.1//EN" "http://www.w3.org/Graphics/SVG/1.1/DTD/svg11.dtd">
<svg xmlns="http://www.w3.org/2000/svg" xmlns:xlink="http://www.w3.org/1999/xlink" version="1.1" width="1080" height="1080" viewBox="0 0 1080 1080" xml:space="preserve">
<desc>Created with Fabric.js 4.2.0</desc>
<defs>
</defs>
<rect x="0" y="0" width="100%" height="100%" fill="transparent"></rect>
<g transform="matrix(1 0 0 1 540 540)" id="53ebabc5-a6ca-49d7-85ca-e39a91406886"  >
</g>
<g transform="matrix(1 0 0 1 540 540)" id="4186f36d-589e-49d8-a474-ab79e9c20e48"  >
<rect style="stroke: none; stroke-width: 1; stroke-dasharray: none; stroke-linecap: butt; stroke-dashoffset: 0; stroke-linejoin: miter; stroke-miterlimit: 4; fill: rgb(255,255,255); fill-rule: nonzero; opacity: 1;" vector-effect="non-scaling-stroke"  x="-540" y="-540" rx="0" ry="0" width="1080" height="1080" />
</g>
<g transform="matrix(0.76 0 0 0.76 540 540)"  >
<g style="" vector-effect="non-scaling-stroke"   >
		<g transform="matrix(1 0 0 1 0 0)"  >
<rect style="stroke: none; stroke-width: 1; stroke-dasharray: none; stroke-linecap: butt; stroke-dashoffset: 0; stroke-linejoin: miter; stroke-miterlimit: 4; fill: rgb(255,255,255); fill-rule: nonzero; opacity: 1;" vector-effect="non-scaling-stroke"  x="-611.5" y="-532.5" rx="0" ry="0" width="1223" height="1065" />
</g>
		<g transform="matrix(1 0 0 1 -20.91 184.33)"  >
<path style="stroke: none; stroke-width: 1; stroke-dasharray: none; stroke-linecap: butt; stroke-dashoffset: 0; stroke-linejoin: miter; stroke-miterlimit: 4; fill: rgb(9,91,7); fill-rule: nonzero; opacity: 1;" vector-effect="non-scaling-stroke"  transform=" translate(-590.59, -716.83)" d="M 582.8 822.4 C 581.1 819.6 589.1 799.7 593.8 794.6 C 595.6 792.7 596.1 791.6 595.3 791.3 C 593.5 790.6 593.7 789.2 596 785.9 C 599.1 781.7 601 771 601 758 C 600.9 744.3 599.8 738.4 596.3 734.8 C 593.5 731.9 593.6 730.9 596.5 723 C 600.1 713.6 599.4 680 595.4 670 C 594.3 667.4 593 665.8 591.5 665.4 C 583.5 663.4 566.1 680.5 563.5 692.8 C 563 695.3 563.4 697.2 565.3 700.8 C 566.7 703.4 569.2 710.3 570.8 716 C 574 727.1 576.1 732.1 581 741 C 585 748.1 584.7 750.5 580 750.4 C 578.1 750.3 573.5 749.2 569.7 747.9 C 561.9 745.1 562.5 746.9 561 724.5 C 560.5 716.3 559.6 707.8 559 705.6 C 557.9 702 557.7 701.8 554.8 702.4 C 546.9 704 523.9 718.3 514.4 727.5 C 508.2 733.6 505 739.6 501.4 752.1 C 498.3 762.7 496.6 765.7 497.5 759 C 499.3 746.1 500.4 739.9 502.2 734.2 C 503.2 730.7 504 726.9 503.8 725.7 C 503.5 723.3 503.2 723.3 493.3 724.5 C 485.8 725.4 485.5 724.7 490.7 718.9 C 496.3 712.7 499.1 711.6 508.2 712.3 C 512.6 712.6 517.7 712.4 519.6 711.8 C 528.6 709.4 558 675.7 571.3 652.5 C 579.3 638.8 581.3 632.7 581.6 622.7 C 581.7 617.5 582.3 613.4 583 612.5 C 583.9 611.4 586.3 611 591.2 611 C 602.3 611 604.8 612.8 612.5 626.5 C 616.6 633.7 623.3 640.4 632.5 646.5 C 642.2 653 649.6 656 655.5 656 C 659.1 656 660.3 655.5 661.6 653.5 C 663.9 650 664.6 650.4 665.4 655 C 665.9 658.3 667.3 660.3 672.9 665.8 C 677.2 670 680.1 673.7 680.5 675.5 C 682.4 683.8 684.6 690.6 689.1 701.2 C 691.8 707.6 694 713.7 694 714.8 C 694 717.3 691.1 718.4 687 717.5 C 683.2 716.7 682.3 715.4 681.5 709.5 C 679.9 698.3 670.6 674.4 666.5 671 C 662.4 667.6 649.1 669.1 646.9 673.1 C 646.3 674.3 646 680.3 646.2 688 C 646.4 696.4 646.1 701.3 645.4 702 C 643.1 704.3 641.1 699 638 683.1 C 635.7 671.1 633 665.8 626.8 661.4 C 621.6 657.6 614.6 654 612.6 654 C 609 654 609.2 661.6 613 676.4 C 617.6 694.3 623.7 709 632.4 723.4 C 635.5 728.6 637.1 734 635.5 734 C 633.6 734 629 729.6 623.3 722.3 C 619.8 717.8 616.4 714 615.9 714 C 613.1 714 611.3 726.2 610 754 C 608.7 781.5 608.1 784.5 603.8 789.1 C 602 791 597.3 798.6 593.5 805.8 C 585.9 820.2 583.6 823.7 582.8 822.4 L 582.8 822.4 Z" stroke-linecap="round" />
</g>
		<g transform="matrix(1 0 0 1 3.43 282.96)"  >
<path style="stroke: none; stroke-width: 1; stroke-dasharray: none; stroke-linecap: butt; stroke-dashoffset: 0; stroke-linejoin: miter; stroke-miterlimit: 4; fill: rgb(9,91,7); fill-rule: nonzero; opacity: 1;" vector-effect="non-scaling-stroke"  transform=" translate(-614.93, -815.46)" d="M 613.7 821.2 C 612 819.3 609 811.8 609 809.4 C 609 806.7 612.3 808 616.7 812.4 C 620.2 815.9 621.1 817.5 620.8 819.7 C 620.4 823.2 616.3 824.1 613.7 821.2 Z" stroke-linecap="round" />
</g>
		<g transform="matrix(1 0 0 1 169.71 126.62)"  >
<path style="stroke: none; stroke-width: 1; stroke-dasharray: none; stroke-linecap: butt; stroke-dashoffset: 0; stroke-linejoin: miter; stroke-miterlimit: 4; fill: rgb(9,91,7); fill-rule: nonzero; opacity: 1;" vector-effect="non-scaling-stroke"  transform=" translate(-781.21, -659.12)" d="M 811.7 704.6 C 800.4 699.9 794 694 788.7 683.4 C 785.1 676.2 778 667.9 770.9 662.6 C 763.3 656.9 760.6 656.6 759 661.6 C 757.9 664.8 758 667.3 759.2 675.4 C 759.7 678.6 757.2 678.3 755 674.8 C 752 669.9 752.3 661.2 755.6 654.3 C 758.5 648 758.3 645.6 753.8 636.6 C 750.3 629.7 743 621.6 738 619 C 736.1 618 733.4 616 732.1 614.6 C 730.1 612.5 730 612 731.2 611.5 C 733.3 610.7 740.3 612.6 746.3 615.6 C 752.8 618.9 758 624.6 762.5 633.2 C 773.4 654.1 801.7 668.1 812.4 658.1 C 815.6 655.1 816.7 655.5 817.3 660.1 C 817.9 664.5 819.5 666.3 822 665.4 C 822.8 665.1 825.3 664.6 827.7 664.3 C 831.2 663.8 832 664 832 665.3 C 832 669.8 822.2 671.1 801.5 669.1 C 797.1 668.7 792.5 668.6 791.3 668.9 C 789.3 669.5 789.3 669.7 790.4 673.2 C 793.8 683 803.7 694.9 813.7 701.2 C 823.1 707.1 822.1 708.8 811.7 704.6 L 811.7 704.6 Z" stroke-linecap="round" />
</g>
		<g transform="matrix(1 0 0 1 -168.79 119.07)"  >
<path style="stroke: none; stroke-width: 1; stroke-dasharray: none; stroke-linecap: butt; stroke-dashoffset: 0; stroke-linejoin: miter; stroke-miterlimit: 4; fill: rgb(9,91,7); fill-rule: nonzero; opacity: 1;" vector-effect="non-scaling-stroke"  transform=" translate(-442.71, -651.57)" d="M 453 691.4 C 453 691 457.7 685.8 463.5 679.8 C 469.3 673.8 476 666 478.5 662.6 C 497.8 635.5 493.6 616.4 469.3 621.4 C 456 624.1 446.6 630 443.4 637.6 C 442.7 639.3 441.6 644.4 441.1 649 C 440 657.4 437.9 662.5 435.7 661.7 C 434.9 661.5 434.5 658.1 434.5 651.3 C 434.5 642.8 434.2 640.9 432.6 639.1 C 426.8 632.7 407.6 641.8 394 657.5 C 388.7 663.6 386 669 385.3 675.1 C 384.6 681.1 382.5 683.4 380.4 680.5 C 378.5 677.9 379.3 674.4 384.1 664.2 C 388.1 655.6 388.9 652 386.8 652 C 386.1 652 383.6 652.7 381.3 653.6 C 376.2 655.6 374.5 654.7 378 652 C 382.3 648.7 399.8 638.6 416.9 629.5 C 450 611.9 455.3 610.5 486.5 611.2 C 498.1 611.4 508.2 612 508.9 612.4 C 509.8 613 509 613.9 506.3 615.6 C 499.7 619.5 499.5 620.4 499.5 648.7 C 499.5 662.5 499.2 674.2 498.7 674.6 C 498.3 675 496.5 673.7 494.6 671.7 C 492.2 669.1 490.4 668 488.3 668 C 484.8 668 482.5 669.5 473 678.3 C 462.6 688 453 694.2 453 691.4 L 453 691.4 Z" stroke-linecap="round" />
</g>
		<g transform="matrix(1 0 0 1 -86.25 111.01)"  >
<path style="stroke: none; stroke-width: 1; stroke-dasharray: none; stroke-linecap: butt; stroke-dashoffset: 0; stroke-linejoin: miter; stroke-miterlimit: 4; fill: rgb(9,91,7); fill-rule: nonzero; opacity: 1;" vector-effect="non-scaling-stroke"  transform=" translate(-525.25, -643.51)" d="M 531.6 674.4 C 531.3 673.5 531 666.3 531 658.4 C 531 646.8 530.7 644 529.6 644 C 528.8 644 525 647.7 521.2 652.3 C 514.4 660.2 509.7 664.1 508.4 662.7 C 507.2 661.5 510.1 656.2 517.6 645.8 C 526 634.1 533 621.1 533 617.1 C 533 613.7 535.2 610.6 537.1 611.2 C 538.2 611.6 538.5 614.9 538.6 628.1 C 538.6 641.4 539.1 646.3 540.8 653.9 C 543.5 664.9 542.9 668.1 537.4 673 C 533.5 676.4 532.5 676.7 531.6 674.4 L 531.6 674.4 Z" stroke-linecap="round" />
</g>
		<g transform="matrix(1 0 0 1 87.79 100.95)"  >
<path style="stroke: none; stroke-width: 1; stroke-dasharray: none; stroke-linecap: butt; stroke-dashoffset: 0; stroke-linejoin: miter; stroke-miterlimit: 4; fill: rgb(9,91,7); fill-rule: nonzero; opacity: 1;" vector-effect="non-scaling-stroke"  transform=" translate(-699.29, -633.45)" d="M 708.8 649.1 C 704.6 645.4 699.6 641.6 697.8 640.7 C 693.6 638.6 691.9 639.7 686.7 647.3 C 684.6 650.5 682.5 653 682 653 C 679.6 653 681.5 647.2 687.7 634.9 C 692.7 625.2 694.5 620.6 694.5 617.6 C 694.6 612.3 695.5 611 698.9 611 C 703 611 704.1 613 705.1 621.8 C 706.2 631.8 709.1 641.2 712.9 647.1 C 717 653.6 718.2 656 717.3 655.9 C 716.9 655.9 713 652.8 708.8 649.1 L 708.8 649.1 Z" stroke-linecap="round" />
</g>
		<g transform="matrix(1 0 0 1 28.41 93.97)"  >
<path style="stroke: none; stroke-width: 1; stroke-dasharray: none; stroke-linecap: butt; stroke-dashoffset: 0; stroke-linejoin: miter; stroke-miterlimit: 4; fill: rgb(9,91,7); fill-rule: nonzero; opacity: 1;" vector-effect="non-scaling-stroke"  transform=" translate(-639.91, -626.47)" d="M 645.4 637.8 C 639.9 632 637.6 628.3 636.6 623.4 C 636.1 621.2 635 619.9 632.7 618.9 C 630.2 617.8 629.4 616.8 629.2 614.3 C 628.9 611.6 629.2 611 630.9 611 C 633.7 611 638.9 617.5 645.4 629.5 C 652.5 642.5 652.5 645.4 645.4 637.8 Z" stroke-linecap="round" />
</g>
		<g transform="matrix(1 0 0 1 -213.46 -8.77)"  >
<path style="stroke: none; stroke-width: 1; stroke-dasharray: none; stroke-linecap: butt; stroke-dashoffset: 0; stroke-linejoin: miter; stroke-miterlimit: 4; fill: rgb(9,91,7); fill-rule: nonzero; opacity: 1;" vector-effect="non-scaling-stroke"  transform=" translate(-398.04, -523.73)" d="M 405.2 551.1 C 399.1 541.9 393.4 534 392.6 533.7 C 389.8 532.6 387.4 539.7 385.5 555 C 384.3 564.5 377.9 569.9 377.2 561.9 C 376.8 557.4 379.7 540.3 386 510 C 391.2 484.8 391.9 482.1 394.4 480.1 C 395.7 479 396.3 479.2 398.4 481.5 C 403 486.5 411.3 517.1 417 550.6 C 419.4 564.4 419.5 568 417.6 568 C 416.9 568 411.3 560.4 405.2 551.1 Z M 400.5 523.3 C 399.2 515.3 397.8 510 396.9 510 C 395.3 510 395.9 515.7 398.1 521.5 C 400.5 527.9 401.3 528.5 400.5 523.3 Z" stroke-linecap="round" />
</g>
		<g transform="matrix(1 0 0 1 -266.82 -9.96)"  >
<path style="stroke: none; stroke-width: 1; stroke-dasharray: none; stroke-linecap: butt; stroke-dashoffset: 0; stroke-linejoin: miter; stroke-miterlimit: 4; fill: rgb(9,91,7); fill-rule: nonzero; opacity: 1;" vector-effect="non-scaling-stroke"  transform=" translate(-344.68, -522.54)" d="M 327.6 566.1 C 325.9 563.4 325 545.4 325 513.4 L 325 478.2 L 331.8 478.7 C 362.2 480.7 366.2 485.6 355.5 507.9 C 352.2 514.7 350.7 519.1 350.7 521.9 C 350.7 524.6 352.9 531.2 357.4 542 C 361.6 551.9 364.2 559.7 364.3 562.3 C 364.5 566.2 364.3 566.5 362 566.5 C 359 566.5 356 561.4 350.4 547.3 C 346.3 536.7 341.7 529 339.5 529 C 337.6 529 335.4 536.9 334 549.4 C 333.3 554.9 332.3 561 331.7 562.9 C 330.5 566.5 328.7 567.9 327.6 566.1 L 327.6 566.1 Z M 346 500.9 C 349.7 493.8 349.7 492.6 346 491 C 338.7 488 336 492 336 505.9 L 336.1 514.5 L 339.5 510.5 C 341.4 508.3 344.3 504 346 500.9 Z" stroke-linecap="round" />
</g>
		<g transform="matrix(1 0 0 1 -170.68 -9.24)"  >
<path style="stroke: none; stroke-width: 1; stroke-dasharray: none; stroke-linecap: butt; stroke-dashoffset: 0; stroke-linejoin: miter; stroke-miterlimit: 4; fill: rgb(9,91,7); fill-rule: nonzero; opacity: 1;" vector-effect="non-scaling-stroke"  transform=" translate(-440.82, -523.26)" d="M 439.6 566.2 C 439.3 565.7 438.5 560.9 437.9 555.7 C 436.6 544.8 437.2 488.8 438.7 483 C 439.9 478.3 442.2 478.5 443.4 483.5 C 444.8 488.8 444.8 557.2 443.4 562.4 C 442.5 566.3 440.7 568 439.6 566.2 Z" stroke-linecap="round" />
</g>
		<g transform="matrix(1 0 0 1 -136.56 -9.53)"  >
<path style="stroke: none; stroke-width: 1; stroke-dasharray: none; stroke-linecap: butt; stroke-dashoffset: 0; stroke-linejoin: miter; stroke-miterlimit: 4; fill: rgb(9,91,7); fill-rule: nonzero; opacity: 1;" vector-effect="non-scaling-stroke"  transform=" translate(-474.94, -522.97)" d="M 461 565.7 C 458.4 564.8 457.4 563.9 457.2 562 C 457.1 560.6 462.1 544.2 468.5 525.5 C 474.8 506.8 480 490.7 480 489.8 C 480 488.8 479.4 488 478.8 488 C 472.3 487.7 462.5 485.9 460.4 484.5 C 458 482.9 457.9 482.7 459.4 481.2 C 461.8 478.8 480.2 478.2 485.3 480.4 C 488.4 481.6 489 482.4 489 484.9 C 489 488.7 481.2 514.5 472.6 539.3 C 468.9 549.7 466 558.3 466 558.5 C 466 558.6 471.4 558.9 478 559.1 C 487.4 559.4 490.3 559.8 491.6 561.2 C 493.7 563.3 492.8 564.7 488.2 566 C 483.2 567.3 465.3 567.2 461 565.7 Z" stroke-linecap="round" />
</g>
		<g transform="matrix(1 0 0 1 -68.29 -9.55)"  >
<path style="stroke: none; stroke-width: 1; stroke-dasharray: none; stroke-linecap: butt; stroke-dashoffset: 0; stroke-linejoin: miter; stroke-miterlimit: 4; fill: rgb(9,91,7); fill-rule: nonzero; opacity: 1;" vector-effect="non-scaling-stroke"  transform=" translate(-543.21, -522.95)" d="M 527.3 564.3 C 525.7 561.8 525.5 558.3 525.5 523 C 525.5 487.7 525.7 484.2 527.3 481.7 C 531.1 475.9 541.3 479.3 552.2 489.9 C 560.9 498.5 561.4 500.6 560.7 521 C 560 538.3 558.7 546.7 555.9 552.1 C 552.3 559.2 540.3 566.9 532.8 567 C 529.8 567 528.7 566.4 527.3 564.3 L 527.3 564.3 Z M 541.3 550.5 C 548.9 543.5 552.2 529.4 549.6 514.8 C 548.8 510.2 547.5 504.9 546.6 502.9 C 544.8 498.6 539.1 492.5 537.9 493.7 C 536.9 494.8 534.6 546.3 535.5 550.6 C 535.8 552.5 536.4 554 536.8 554 C 537.2 554 539.2 552.4 541.3 550.5 L 541.3 550.5 Z" stroke-linecap="round" />
</g>
		<g transform="matrix(1 0 0 1 -21.32 -9.4)"  >
<path style="stroke: none; stroke-width: 1; stroke-dasharray: none; stroke-linecap: butt; stroke-dashoffset: 0; stroke-linejoin: miter; stroke-miterlimit: 4; fill: rgb(9,91,7); fill-rule: nonzero; opacity: 1;" vector-effect="non-scaling-stroke"  transform=" translate(-590.18, -523.1)" d="M 577 523.1 L 577 479 L 585.9 479 C 595.6 479 599.7 480 600.7 482.6 C 601.5 484.9 598.5 487 594.4 487 C 583.7 487 582.6 501.2 593 504 C 597.5 505.2 597.5 507 593 507 C 586.6 507 585.5 511.1 585.6 535 C 585.7 555.5 586.2 557.6 591.7 558.5 C 598.7 559.6 599.7 560 601.9 561.7 C 603.4 563 603.7 563.9 603 565 C 602.3 566.2 599.3 566.6 589.5 566.8 L 577 567.2 L 577 523.1 L 577 523.1 Z" stroke-linecap="round" />
</g>
		<g transform="matrix(1 0 0 1 51.5 -9.56)"  >
<path style="stroke: none; stroke-width: 1; stroke-dasharray: none; stroke-linecap: butt; stroke-dashoffset: 0; stroke-linejoin: miter; stroke-miterlimit: 4; fill: rgb(9,91,7); fill-rule: nonzero; opacity: 1;" vector-effect="non-scaling-stroke"  transform=" translate(-663, -522.94)" d="M 639.6 566.2 C 637.7 563.1 636.8 543.4 637.3 515.3 C 637.8 485 638.3 479 640.2 479 C 642.3 479 648 484.4 655.4 493.5 C 659.8 498.7 663.6 503 663.9 503 C 664.2 503 666.3 500.2 668.5 496.8 C 673.7 488.7 682.9 478.8 684.9 479.2 C 687.5 479.7 688.1 485.6 688.7 516 C 689.2 545.6 688.4 560.6 685.9 565.2 C 684.7 567.5 684.6 567.5 683.4 564.3 C 681.6 560 680.2 543.8 679.4 516.7 L 678.7 494 L 670.6 506.9 C 666.2 514 662.3 519.7 662 519.5 C 661.7 519.3 657.9 513.5 653.5 506.5 L 645.5 493.9 L 644.9 527.2 C 644.6 545.5 643.9 561.8 643.3 563.4 C 642.4 566.5 640.6 567.8 639.6 566.2 L 639.6 566.2 Z" stroke-linecap="round" />
</g>
		<g transform="matrix(1 0 0 1 101.32 -9.24)"  >
<path style="stroke: none; stroke-width: 1; stroke-dasharray: none; stroke-linecap: butt; stroke-dashoffset: 0; stroke-linejoin: miter; stroke-miterlimit: 4; fill: rgb(9,91,7); fill-rule: nonzero; opacity: 1;" vector-effect="non-scaling-stroke"  transform=" translate(-712.82, -523.26)" d="M 711.6 566.2 C 711.3 565.7 710.5 560.9 709.9 555.7 C 708.6 544.8 709.2 488.8 710.7 483 C 711.9 478.3 714.2 478.5 715.4 483.5 C 716.8 488.8 716.8 557.2 715.4 562.4 C 714.5 566.3 712.7 568 711.6 566.2 Z" stroke-linecap="round" />
</g>
		<g transform="matrix(1 0 0 1 145.45 -9.47)"  >
<path style="stroke: none; stroke-width: 1; stroke-dasharray: none; stroke-linecap: butt; stroke-dashoffset: 0; stroke-linejoin: miter; stroke-miterlimit: 4; fill: rgb(9,91,7); fill-rule: nonzero; opacity: 1;" vector-effect="non-scaling-stroke"  transform=" translate(-756.95, -523.03)" d="M 739.6 566.2 C 736.3 560.8 736.1 482.6 739.4 479.3 C 740.7 478 745.9 482 757.1 492.8 L 768.8 504.1 L 769.2 493.1 C 769.4 484.2 769.8 481.7 771.2 480.3 C 772.4 479.2 773.3 478.9 774 479.6 C 776.1 481.7 777.2 500.3 776.8 530.1 C 776.3 561.8 775.7 567 772.1 567 C 768.7 567 768 562.6 768 542.7 C 768 524.9 767.8 523.2 765.7 518.8 C 763.1 513.2 746.6 494 746.3 496.1 C 746.1 496.9 745.6 511.7 745.1 529 C 744.6 546.3 743.7 561.8 743.3 563.4 C 742.4 566.4 740.6 567.8 739.6 566.2 L 739.6 566.2 Z" stroke-linecap="round" />
</g>
		<g transform="matrix(1 0 0 1 200.06 -9.79)"  >
<path style="stroke: none; stroke-width: 1; stroke-dasharray: none; stroke-linecap: butt; stroke-dashoffset: 0; stroke-linejoin: miter; stroke-miterlimit: 4; fill: rgb(9,91,7); fill-rule: nonzero; opacity: 1;" vector-effect="non-scaling-stroke"  transform=" translate(-811.56, -522.71)" d="M 790.3 565.3 C 789.9 564.4 790.2 561.2 790.9 558.1 C 791.6 555 794.5 540.8 797.5 526.5 C 805.4 488.5 809.6 476.8 814.4 478.6 C 815.3 478.9 817.1 482.6 818.4 486.9 C 822.9 501.2 833 554 833 563.3 C 833 569.6 830.1 567.7 825 558 C 820.3 549.3 809.8 537 806.9 537 C 804.8 537 803.3 540.4 801 550.7 C 798.5 561.2 795.7 567 792.9 567 C 791.8 567 790.6 566.2 790.3 565.3 L 790.3 565.3 Z M 813.9 516.5 C 812.9 511.1 812.5 510.2 811.8 512 C 811 514.3 811.2 516.2 813.2 521.3 C 814.9 525.7 815.2 523.8 813.9 516.5 Z" stroke-linecap="round" />
</g>
		<g transform="matrix(1 0 0 1 251.55 -9.4)"  >
<path style="stroke: none; stroke-width: 1; stroke-dasharray: none; stroke-linecap: butt; stroke-dashoffset: 0; stroke-linejoin: miter; stroke-miterlimit: 4; fill: rgb(9,91,7); fill-rule: nonzero; opacity: 1;" vector-effect="non-scaling-stroke"  transform=" translate(-863.05, -523.1)" d="M 848.1 564.4 C 844.3 561.2 844.1 558.3 847.6 557 C 849 556.4 853.9 556 858.6 556 C 868.6 556 870.5 554.8 871.6 547.5 C 872.8 539.2 870.2 533.5 858.4 518.7 C 850.6 508.8 848.5 502.9 849.5 493.7 C 850.3 486.8 852.1 482.5 854.9 481.1 C 855.9 480.5 859.6 479.8 863.2 479.4 C 871 478.6 873 480 873 486.1 C 873 490.7 872 491 866.8 487.4 C 863.2 484.9 862.9 484.8 860.5 486.4 C 856.5 489 854.7 492.5 855.4 496.3 C 855.7 498.1 859.1 504.3 862.8 510.1 C 876.9 531.7 881 540.2 881 547.2 C 881 558 870.3 567 857.3 567 C 852.1 567 850.7 566.6 848.1 564.4 L 848.1 564.4 Z" stroke-linecap="round" />
</g>
		<g transform="matrix(1 0 0 1 -165.02 -71.01)"  >
<path style="stroke: none; stroke-width: 1; stroke-dasharray: none; stroke-linecap: butt; stroke-dashoffset: 0; stroke-linejoin: miter; stroke-miterlimit: 4; fill: rgb(9,91,7); fill-rule: nonzero; opacity: 1;" vector-effect="non-scaling-stroke"  transform=" translate(-446.48, -461.49)" d="M 437.7 470.3 C 436.1 468.8 437.2 464.8 440.3 461.4 C 447.5 453.1 456 449.3 456 454.3 C 456 461.1 441.3 473.9 437.7 470.3 L 437.7 470.3 Z" stroke-linecap="round" />
</g>
		<g transform="matrix(1 0 0 1 63.33 -76.35)"  >
<path style="stroke: none; stroke-width: 1; stroke-dasharray: none; stroke-linecap: butt; stroke-dashoffset: 0; stroke-linejoin: miter; stroke-miterlimit: 4; fill: rgb(9,91,7); fill-rule: nonzero; opacity: 1;" vector-effect="non-scaling-stroke"  transform=" translate(-674.83, -456.15)" d="M 674.2 457.8 C 673.5 457.1 673 455.7 673.1 454.6 C 673.1 453.1 673.3 452.9 673.7 454 C 674 454.8 674.9 456.3 675.8 457.3 C 677.5 459.2 676.1 459.7 674.2 457.8 Z" stroke-linecap="round" />
</g>
		<g transform="matrix(1 0 0 1 -21.86 -161.87)"  >
<path style="stroke: none; stroke-width: 1; stroke-dasharray: none; stroke-linecap: butt; stroke-dashoffset: 0; stroke-linejoin: miter; stroke-miterlimit: 4; fill: rgb(9,91,7); fill-rule: nonzero; opacity: 1;" vector-effect="non-scaling-stroke"  transform=" translate(-589.64, -370.63)" d="M 585.3 446.7 C 584.9 446 584.2 435.2 583.8 422.5 C 582.5 382.2 581.3 376.3 569.4 353.2 C 562.4 339.5 560.8 335 563 335 C 564.8 335 572.8 346.3 577.7 355.6 C 580.3 360.8 582.8 365 583.1 365 C 583.4 365 584.7 359.7 586 353.3 C 591 328.1 595.7 317.4 608.1 303.2 C 612.5 298.1 616.3 294 616.6 294 C 617.2 294 617.1 294.2 611.1 303.5 C 600.4 320.3 593.3 339.7 591 358.5 C 590.1 365.9 590.2 370.2 591.6 382.3 C 592.5 390.4 593.6 397 594 397 C 594.7 397 598.3 393.4 612.4 378.5 L 617.2 373.5 L 614.5 378 C 605.2 394 602 403.3 602 415 C 602 422.4 603 425.6 606.2 427.8 C 609 429.8 608.4 431.3 602.7 436.7 C 594.5 444.4 586.7 448.9 585.3 446.7 Z" stroke-linecap="round" />
</g>
		<g transform="matrix(1 0 0 1 59.59 -131.22)"  >
<path style="stroke: none; stroke-width: 1; stroke-dasharray: none; stroke-linecap: butt; stroke-dashoffset: 0; stroke-linejoin: miter; stroke-miterlimit: 4; fill: rgb(9,91,7); fill-rule: nonzero; opacity: 1;" vector-effect="non-scaling-stroke"  transform=" translate(-671.09, -401.28)" d="M 663.5 442.9 C 657.7 436.9 652.1 433 649.1 433 C 647.6 433 644.9 434.3 643 435.9 C 638.2 439.8 634.4 441.6 627.5 443.3 C 615.6 446.3 605.8 446.2 602.7 443.1 C 601 441.4 603.2 439.7 614 434.2 C 628.1 427.1 647.2 415.5 652.3 411 C 657.6 406.3 659.3 402.4 662.6 387.5 C 666.2 371.7 669.8 361.2 673.1 357.6 C 676.2 354.2 676.9 355.4 674.5 360 C 671.6 365.6 668.9 380.1 668.1 394.3 C 667.6 402.1 667.3 408.6 667.4 408.7 C 667.5 408.8 674.1 409.2 682.1 409.6 C 701.8 410.5 701.5 410.7 723.1 389.3 C 732.4 380.1 740 373 740 373.4 C 740 373.8 736.7 378.5 732.6 383.9 C 728.5 389.2 722.4 397.9 719 403.1 L 712.8 412.5 L 715.7 413.7 C 717.2 414.4 719.6 414.9 721 415 C 722.4 415 724.1 415.4 724.9 415.9 C 726.9 417.2 720.9 417.8 700.5 418.4 C 683.2 419 672.7 420.5 665.5 423.5 C 663.3 424.5 660.5 425.6 659.2 426.1 C 657.1 426.9 657.3 427.3 663.2 432.3 C 670.7 438.7 673.8 443.3 672 445.5 C 670 448 667.6 447.2 663.5 442.9 Z" stroke-linecap="round" />
</g>
		<g transform="matrix(1 0 0 1 -110.32 -145.87)"  >
<path style="stroke: none; stroke-width: 1; stroke-dasharray: none; stroke-linecap: butt; stroke-dashoffset: 0; stroke-linejoin: miter; stroke-miterlimit: 4; fill: rgb(9,91,7); fill-rule: nonzero; opacity: 1;" vector-effect="non-scaling-stroke"  transform=" translate(-501.18, -386.63)" d="M 539 443 C 527.1 437.7 519.9 436.7 499.6 437.3 C 483.7 437.8 473.7 439 465.7 441.6 C 464.3 442 464 441.9 464.5 441 C 465.6 439.2 478.8 433.3 485.6 431.5 C 488.7 430.7 491.5 429.8 491.8 429.6 C 493 428.3 477.5 402.8 464.7 384.8 C 452.5 367.7 451.6 365.7 452.9 360.7 C 453.5 358.4 453.8 351.6 453.7 345.5 C 453.6 336.7 453.8 333.9 455.2 331.3 C 457.8 326.6 460.8 326.1 464.1 329.8 C 470.8 337.3 470.6 351.3 463.6 360.4 C 462.2 362.3 461 365.1 461 366.7 C 461 370.1 467.1 381.1 476.2 394.1 C 493.8 419.2 505.5 428.3 524.4 431.5 C 536.9 433.6 538.4 433.5 537.7 430.8 C 537.4 429.5 536.2 426.1 534.9 423.3 C 532.2 417 533.1 415.2 536.8 419.7 C 540.3 423.8 549 439.7 549.7 443.3 C 550.2 445.6 549.9 446 547.9 445.9 C 546.6 445.9 542.6 444.6 539 443 L 539 443 Z" stroke-linecap="round" />
</g>
		<g transform="matrix(1 0 0 1 -183.35 -96.97)"  >
<path style="stroke: none; stroke-width: 1; stroke-dasharray: none; stroke-linecap: butt; stroke-dashoffset: 0; stroke-linejoin: miter; stroke-miterlimit: 4; fill: rgb(9,91,7); fill-rule: nonzero; opacity: 1;" vector-effect="non-scaling-stroke"  transform=" translate(-428.15, -435.53)" d="M 421.8 441.3 C 415.7 439.3 408.5 433.3 410 431.5 C 410.6 430.8 413.7 429.7 417 429 C 429.8 426.3 446.5 430.2 446.5 436 C 446.5 438 445.5 439 442 440.8 C 436.7 443.4 428.8 443.7 421.8 441.3 Z" stroke-linecap="round" />
</g>
		<g transform="matrix(1 0 0 1 182.47 -98.27)"  >
<path style="stroke: none; stroke-width: 1; stroke-dasharray: none; stroke-linecap: butt; stroke-dashoffset: 0; stroke-linejoin: miter; stroke-miterlimit: 4; fill: rgb(9,91,7); fill-rule: nonzero; opacity: 1;" vector-effect="non-scaling-stroke"  transform=" translate(-793.97, -434.23)" d="M 791 439.9 C 783.5 436.9 778 432.8 778 430.3 C 778 425.1 793.3 424.5 802.8 429.4 C 810.7 433.4 812.3 438.8 806.3 441.1 C 800.9 443.1 798.4 442.9 791 439.9 Z" stroke-linecap="round" />
</g>
		<g transform="matrix(1 0 0 1 72.03 -97.52)"  >
<path style="stroke: none; stroke-width: 1; stroke-dasharray: none; stroke-linecap: butt; stroke-dashoffset: 0; stroke-linejoin: miter; stroke-miterlimit: 4; fill: rgb(9,91,7); fill-rule: nonzero; opacity: 1;" vector-effect="non-scaling-stroke"  transform=" translate(-683.53, -434.98)" d="M 678.5 438 C 677.3 437.6 675.8 436.4 675 435.5 C 673.7 434 673.8 433.6 675.5 432.4 C 677.8 430.7 686.9 430.6 690.5 432.2 C 693.5 433.5 693.8 436.5 691.1 438 C 688.8 439.2 681.4 439.2 678.5 438 Z" stroke-linecap="round" />
</g>
		<g transform="matrix(1 0 0 1 -46.5 -115.5)"  >
<path style="stroke: none; stroke-width: 1; stroke-dasharray: none; stroke-linecap: butt; stroke-dashoffset: 0; stroke-linejoin: miter; stroke-miterlimit: 4; fill: rgb(9,91,7); fill-rule: nonzero; opacity: 1;" vector-effect="non-scaling-stroke"  transform=" translate(-565, -417)" d="M 562.2 424.5 C 561.5 423.1 561 419.7 561 417 C 561 411 562.7 407 565.2 407 C 567.6 407 569 410.7 569 417 C 569 423.3 567.6 427 565.2 427 C 564.2 427 562.8 425.9 562.2 424.5 Z" stroke-linecap="round" />
</g>
		<g transform="matrix(1 0 0 1 -170.35 -119.56)"  >
<path style="stroke: none; stroke-width: 1; stroke-dasharray: none; stroke-linecap: butt; stroke-dashoffset: 0; stroke-linejoin: miter; stroke-miterlimit: 4; fill: rgb(9,91,7); fill-rule: nonzero; opacity: 1;" vector-effect="non-scaling-stroke"  transform=" translate(-441.15, -412.94)" d="M 439 416 C 432.5 412.4 428.8 409.1 429.7 407.7 C 430.5 406.4 441.6 407.5 446 409.4 C 451 411.4 453.7 414.6 452.4 416.8 C 450.6 419.7 445.1 419.3 439 416 L 439 416 Z" stroke-linecap="round" />
</g>
		<g transform="matrix(1 0 0 1 154.11 -124.51)"  >
<path style="stroke: none; stroke-width: 1; stroke-dasharray: none; stroke-linecap: butt; stroke-dashoffset: 0; stroke-linejoin: miter; stroke-miterlimit: 4; fill: rgb(9,91,7); fill-rule: nonzero; opacity: 1;" vector-effect="non-scaling-stroke"  transform=" translate(-765.61, -407.99)" d="M 754.4 413.9 C 752.4 410.6 766.7 401 773.7 401 C 776.5 401 777 401.4 777 403.3 C 777 405.9 772.2 410.9 767.3 413.4 C 763.7 415.2 755.5 415.6 754.4 413.9 L 754.4 413.9 Z" stroke-linecap="round" />
</g>
		<g transform="matrix(1 0 0 1 -194.53 -127.56)"  >
<path style="stroke: none; stroke-width: 1; stroke-dasharray: none; stroke-linecap: butt; stroke-dashoffset: 0; stroke-linejoin: miter; stroke-miterlimit: 4; fill: rgb(9,91,7); fill-rule: nonzero; opacity: 1;" vector-effect="non-scaling-stroke"  transform=" translate(-416.97, -404.94)" d="M 414.2 412.8 C 411.3 409.9 414.4 396 417.9 396 C 421.5 396 422 408.1 418.5 412 C 416.4 414.3 415.8 414.4 414.2 412.8 L 414.2 412.8 Z" stroke-linecap="round" />
</g>
		<g transform="matrix(1 0 0 1 -149.5 -129.29)"  >
<path style="stroke: none; stroke-width: 1; stroke-dasharray: none; stroke-linecap: butt; stroke-dashoffset: 0; stroke-linejoin: miter; stroke-miterlimit: 4; fill: rgb(9,91,7); fill-rule: nonzero; opacity: 1;" vector-effect="non-scaling-stroke"  transform=" translate(-462, -403.21)" d="M 463.9 410.7 C 460.3 408.9 455 401.3 455 397.9 C 455 393.4 458.4 394.1 464.1 399.9 C 467.8 403.5 469 405.5 469 407.8 C 469 411.3 467.2 412.3 463.9 410.7 Z" stroke-linecap="round" />
</g>
		<g transform="matrix(1 0 0 1 -216.5 -131.5)"  >
<path style="stroke: none; stroke-width: 1; stroke-dasharray: none; stroke-linecap: butt; stroke-dashoffset: 0; stroke-linejoin: miter; stroke-miterlimit: 4; fill: rgb(9,91,7); fill-rule: nonzero; opacity: 1;" vector-effect="non-scaling-stroke"  transform=" translate(-395, -401)" d="M 382.4 405.9 C 381.4 404.2 385.2 399.8 390 397.3 C 394.7 394.8 406.3 394 407.6 396.1 C 408.6 397.8 404.8 402.2 400 404.7 C 395.3 407.2 383.7 408 382.4 405.9 Z" stroke-linecap="round" />
</g>
		<g transform="matrix(1 0 0 1 130 -133.65)"  >
<path style="stroke: none; stroke-width: 1; stroke-dasharray: none; stroke-linecap: butt; stroke-dashoffset: 0; stroke-linejoin: miter; stroke-miterlimit: 4; fill: rgb(9,91,7); fill-rule: nonzero; opacity: 1;" vector-effect="non-scaling-stroke"  transform=" translate(-741.5, -398.85)" d="M 730 405.5 C 730 404.7 732.8 401.7 736.2 398.9 C 745.7 391 753 388.4 753 392.9 C 753 397.7 740.4 407 733.8 407 C 731.1 407 730 406.6 730 405.5 Z" stroke-linecap="round" />
</g>
		<g transform="matrix(1 0 0 1 -92.58 -136.23)"  >
<path style="stroke: none; stroke-width: 1; stroke-dasharray: none; stroke-linecap: butt; stroke-dashoffset: 0; stroke-linejoin: miter; stroke-miterlimit: 4; fill: rgb(9,91,7); fill-rule: nonzero; opacity: 1;" vector-effect="non-scaling-stroke"  transform=" translate(-518.92, -396.27)" d="M 519.1 403.4 C 514 399.1 511.8 393.3 513.6 388.6 C 515.3 384.1 521.8 389.5 523.9 397.3 C 526.2 405.4 524.3 407.8 519.1 403.4 L 519.1 403.4 Z" stroke-linecap="round" />
</g>
		<g transform="matrix(1 0 0 1 -67.08 -133.91)"  >
<path style="stroke: none; stroke-width: 1; stroke-dasharray: none; stroke-linecap: butt; stroke-dashoffset: 0; stroke-linejoin: miter; stroke-miterlimit: 4; fill: rgb(9,91,7); fill-rule: nonzero; opacity: 1;" vector-effect="non-scaling-stroke"  transform=" translate(-544.42, -398.59)" d="M 537 403.4 C 537 399.7 545.9 390.7 549.2 391.2 C 550.4 391.4 551.6 392.2 551.8 393.1 C 552.5 396.8 543.3 406 538.9 406 C 537.5 406 537 405.3 537 403.4 L 537 403.4 Z" stroke-linecap="round" />
</g>
		<g transform="matrix(1 0 0 1 185.66 -134.01)"  >
<path style="stroke: none; stroke-width: 1; stroke-dasharray: none; stroke-linecap: butt; stroke-dashoffset: 0; stroke-linejoin: miter; stroke-miterlimit: 4; fill: rgb(9,91,7); fill-rule: nonzero; opacity: 1;" vector-effect="non-scaling-stroke"  transform=" translate(-797.16, -398.49)" d="M 796.6 402.7 C 792.5 400.4 788.4 394.8 789.5 393 C 790.4 391.5 793.8 391.8 796.8 393.6 C 799.9 395.4 805 401.7 805 403.7 C 805 405.7 801 405.2 796.6 402.7 Z" stroke-linecap="round" />
</g>
		<g transform="matrix(1 0 0 1 -122.64 -139.64)"  >
<path style="stroke: none; stroke-width: 1; stroke-dasharray: none; stroke-linecap: butt; stroke-dashoffset: 0; stroke-linejoin: miter; stroke-miterlimit: 4; fill: rgb(9,91,7); fill-rule: nonzero; opacity: 1;" vector-effect="non-scaling-stroke"  transform=" translate(-488.86, -392.86)" d="M 487.6 400 C 483.3 394.8 484.3 383 489.1 383 C 490.3 383 491.4 384 492.1 385.7 C 493.4 389.1 492.9 402.2 491.4 402.7 C 490.8 402.9 489.1 401.7 487.6 400 Z" stroke-linecap="round" />
</g>
		<g transform="matrix(1 0 0 1 -202.45 -147.62)"  >
<path style="stroke: none; stroke-width: 1; stroke-dasharray: none; stroke-linecap: butt; stroke-dashoffset: 0; stroke-linejoin: miter; stroke-miterlimit: 4; fill: rgb(9,91,7); fill-rule: nonzero; opacity: 1;" vector-effect="non-scaling-stroke"  transform=" translate(-409.05, -384.88)" d="M 408 389.1 C 403.4 386.6 400.6 383.5 401.4 381.5 C 403.6 375.6 417.6 381.2 416.8 387.8 C 416.4 391.2 413 391.7 408 389.1 L 408 389.1 Z" stroke-linecap="round" />
</g>
		<g transform="matrix(1 0 0 1 202.15 -145.54)"  >
<path style="stroke: none; stroke-width: 1; stroke-dasharray: none; stroke-linecap: butt; stroke-dashoffset: 0; stroke-linejoin: miter; stroke-miterlimit: 4; fill: rgb(9,91,7); fill-rule: nonzero; opacity: 1;" vector-effect="non-scaling-stroke"  transform=" translate(-813.65, -386.96)" d="M 806.4 389.6 C 802.3 387.8 801.6 386.5 803.6 384.6 C 805.5 382.6 818.3 382.4 822 384.3 C 825.5 386.1 825.7 388.8 822.5 390 C 818.8 391.4 810.1 391.2 806.4 389.6 L 806.4 389.6 Z" stroke-linecap="round" />
</g>
		<g transform="matrix(1 0 0 1 86.91 -152.08)"  >
<path style="stroke: none; stroke-width: 1; stroke-dasharray: none; stroke-linecap: butt; stroke-dashoffset: 0; stroke-linejoin: miter; stroke-miterlimit: 4; fill: rgb(9,91,7); fill-rule: nonzero; opacity: 1;" vector-effect="non-scaling-stroke"  transform=" translate(-698.41, -380.42)" d="M 689.7 389.3 C 687.8 387.5 689.6 384.2 695.5 378.4 C 701.4 372.6 706.2 369.8 707.6 371.3 C 708.7 372.4 705.8 379.2 702.7 382.6 C 701.1 384.6 698 387 695.9 388.1 C 691.8 390.1 690.7 390.4 689.7 389.3 L 689.7 389.3 Z" stroke-linecap="round" />
</g>
		<g transform="matrix(1 0 0 1 -71.07 -155.87)"  >
<path style="stroke: none; stroke-width: 1; stroke-dasharray: none; stroke-linecap: butt; stroke-dashoffset: 0; stroke-linejoin: miter; stroke-miterlimit: 4; fill: rgb(9,91,7); fill-rule: nonzero; opacity: 1;" vector-effect="non-scaling-stroke"  transform=" translate(-540.43, -376.63)" d="M 533.4 386.4 C 531.5 379.1 535.8 368.1 541.6 364.9 C 544 363.7 544.4 363.7 546.1 365.9 C 548.4 368.7 548.5 371.1 546.5 377.7 C 543.7 387.1 535 392.9 533.4 386.4 L 533.4 386.4 Z" stroke-linecap="round" />
</g>
		<g transform="matrix(1 0 0 1 -171.2 -151)"  >
<path style="stroke: none; stroke-width: 1; stroke-dasharray: none; stroke-linecap: butt; stroke-dashoffset: 0; stroke-linejoin: miter; stroke-miterlimit: 4; fill: rgb(9,91,7); fill-rule: nonzero; opacity: 1;" vector-effect="non-scaling-stroke"  transform=" translate(-440.3, -381.5)" d="M 427.2 385.8 C 425.7 385.1 425 383.9 425.2 382.6 C 426.3 375.1 451.1 373.6 454.9 380.9 C 455.9 382.6 455.6 383.2 453.3 384.7 C 450 386.9 431 387.7 427.2 385.8 L 427.2 385.8 Z" stroke-linecap="round" />
</g>
		<g transform="matrix(1 0 0 1 152.73 -153.3)"  >
<path style="stroke: none; stroke-width: 1; stroke-dasharray: none; stroke-linecap: butt; stroke-dashoffset: 0; stroke-linejoin: miter; stroke-miterlimit: 4; fill: rgb(9,91,7); fill-rule: nonzero; opacity: 1;" vector-effect="non-scaling-stroke"  transform=" translate(-764.23, -379.2)" d="M 762.4 385.6 C 758.8 384 752 376.4 752 373.9 C 752 370.8 755.7 370.6 761.3 373.4 C 767.3 376.3 777.3 384.7 776.4 386.1 C 775.6 387.5 765.9 387.1 762.4 385.6 Z" stroke-linecap="round" />
</g>
		<g transform="matrix(1 0 0 1 -92.57 -158.84)"  >
<path style="stroke: none; stroke-width: 1; stroke-dasharray: none; stroke-linecap: butt; stroke-dashoffset: 0; stroke-linejoin: miter; stroke-miterlimit: 4; fill: rgb(9,91,7); fill-rule: nonzero; opacity: 1;" vector-effect="non-scaling-stroke"  transform=" translate(-518.93, -373.66)" d="M 517.7 381.2 C 514.3 377.4 511.6 366 513.9 364.6 C 515.4 363.7 521.2 368.3 523.2 372 C 524.3 374 524.9 377 524.8 379 C 524.5 381.9 524.1 382.5 521.9 382.8 C 520.4 383 518.7 382.3 517.7 381.2 L 517.7 381.2 Z" stroke-linecap="round" />
</g>
		<g transform="matrix(1 0 0 1 19.69 -153.5)"  >
<path style="stroke: none; stroke-width: 1; stroke-dasharray: none; stroke-linecap: butt; stroke-dashoffset: 0; stroke-linejoin: miter; stroke-miterlimit: 4; fill: rgb(9,91,7); fill-rule: nonzero; opacity: 1;" vector-effect="non-scaling-stroke"  transform=" translate(-631.19, -379)" d="M 626.5 382 C 620 379.4 621.5 375 628.9 375 C 633.3 375 640 377.9 640 379.8 C 640 382.7 631.6 384.1 626.5 382 Z" stroke-linecap="round" />
</g>
		<g transform="matrix(1 0 0 1 183.4 -157.36)"  >
<path style="stroke: none; stroke-width: 1; stroke-dasharray: none; stroke-linecap: butt; stroke-dashoffset: 0; stroke-linejoin: miter; stroke-miterlimit: 4; fill: rgb(9,91,7); fill-rule: nonzero; opacity: 1;" vector-effect="non-scaling-stroke"  transform=" translate(-794.9, -375.14)" d="M 789.7 381.3 C 788 379.7 789.3 376.7 793.4 372.4 C 798 367.6 800.3 367.1 800.8 370.7 C 801 372.1 799.6 374.4 796.7 377.4 C 792.4 381.9 791 382.7 789.7 381.3 Z" stroke-linecap="round" />
</g>
		<g transform="matrix(1 0 0 1 110.77 -166.88)"  >
<path style="stroke: none; stroke-width: 1; stroke-dasharray: none; stroke-linecap: butt; stroke-dashoffset: 0; stroke-linejoin: miter; stroke-miterlimit: 4; fill: rgb(9,91,7); fill-rule: nonzero; opacity: 1;" vector-effect="non-scaling-stroke"  transform=" translate(-722.27, -365.62)" d="M 718.2 377.3 C 717.1 374.5 717.5 362.9 718.9 358.9 C 720.4 354.4 723.3 351.5 725.6 352.4 C 727 353 727.2 354.4 726.8 363.8 C 726.6 369.7 725.8 375.5 725.1 376.8 C 723.7 379.5 719.3 379.8 718.2 377.3 Z" stroke-linecap="round" />
</g>
		<g transform="matrix(1 0 0 1 -191.35 -172.99)"  >
<path style="stroke: none; stroke-width: 1; stroke-dasharray: none; stroke-linecap: butt; stroke-dashoffset: 0; stroke-linejoin: miter; stroke-miterlimit: 4; fill: rgb(9,91,7); fill-rule: nonzero; opacity: 1;" vector-effect="non-scaling-stroke"  transform=" translate(-420.15, -359.51)" d="M 406.2 365.5 C 404.4 364.7 402.5 362.9 402 361.4 C 398.9 353.3 408.1 350 424.7 353.4 C 428.4 354.2 433.2 355.1 435.3 355.4 C 442.2 356.6 438.6 362.8 429.5 365.6 C 423.4 367.4 410.5 367.4 406.2 365.5 L 406.2 365.5 Z" stroke-linecap="round" />
</g>
		<g transform="matrix(1 0 0 1 -5.57 -174.06)"  >
<path style="stroke: none; stroke-width: 1; stroke-dasharray: none; stroke-linecap: butt; stroke-dashoffset: 0; stroke-linejoin: miter; stroke-miterlimit: 4; fill: rgb(9,91,7); fill-rule: nonzero; opacity: 1;" vector-effect="non-scaling-stroke"  transform=" translate(-605.93, -358.44)" d="M 605.3 363.8 C 603.2 361.4 601 355.9 601 352.9 C 601 350.3 606.1 350.4 608.4 352.9 C 610.7 355.4 611.7 362.5 610 364.5 C 608.3 366.5 607.7 366.4 605.3 363.8 Z" stroke-linecap="round" />
</g>
		<g transform="matrix(1 0 0 1 -84.49 -176.55)"  >
<path style="stroke: none; stroke-width: 1; stroke-dasharray: none; stroke-linecap: butt; stroke-dashoffset: 0; stroke-linejoin: miter; stroke-miterlimit: 4; fill: rgb(9,91,7); fill-rule: nonzero; opacity: 1;" vector-effect="non-scaling-stroke"  transform=" translate(-527.01, -355.95)" d="M 525.8 362.3 C 522.5 358.7 521 355.7 521 352.6 C 521 348.8 522 347 524.2 347 C 527.5 347 529.7 348.8 531.4 353 C 535.3 362.7 531.7 368.6 525.8 362.3 L 525.8 362.3 Z" stroke-linecap="round" />
</g>
		<g transform="matrix(1 0 0 1 173.25 -174.37)"  >
<path style="stroke: none; stroke-width: 1; stroke-dasharray: none; stroke-linecap: butt; stroke-dashoffset: 0; stroke-linejoin: miter; stroke-miterlimit: 4; fill: rgb(9,91,7); fill-rule: nonzero; opacity: 1;" vector-effect="non-scaling-stroke"  transform=" translate(-784.75, -358.13)" d="M 774.6 363.5 C 770.5 362.1 769 360.6 769 357.8 C 769 355.4 773.4 352.3 778.1 351.5 C 783.9 350.5 794.6 352.8 797.8 355.6 L 800.5 358 L 798.2 360 C 795.3 362.4 786.9 365 782.1 365 C 780.1 364.9 776.7 364.3 774.6 363.5 L 774.6 363.5 Z" stroke-linecap="round" />
</g>
		<g transform="matrix(1 0 0 1 25.46 -178.7)"  >
<path style="stroke: none; stroke-width: 1; stroke-dasharray: none; stroke-linecap: butt; stroke-dashoffset: 0; stroke-linejoin: miter; stroke-miterlimit: 4; fill: rgb(9,91,7); fill-rule: nonzero; opacity: 1;" vector-effect="non-scaling-stroke"  transform=" translate(-636.96, -353.8)" d="M 630.2 361.8 C 628.1 359.7 628.8 354.4 631.5 351.2 C 634.4 347.7 641.6 343.9 643.6 344.7 C 645.4 345.4 645.4 350.3 643.6 353.9 C 641.7 357.5 635.4 363 633.2 363 C 632.2 363 630.9 362.5 630.2 361.8 L 630.2 361.8 Z" stroke-linecap="round" />
</g>
		<g transform="matrix(1 0 0 1 80.97 -175.55)"  >
<path style="stroke: none; stroke-width: 1; stroke-dasharray: none; stroke-linecap: butt; stroke-dashoffset: 0; stroke-linejoin: miter; stroke-miterlimit: 4; fill: rgb(9,91,7); fill-rule: nonzero; opacity: 1;" vector-effect="non-scaling-stroke"  transform=" translate(-692.47, -356.95)" d="M 682.2 362.1 C 679.5 360.5 681.3 356.6 685.9 354.1 C 691.3 351.1 704 349.8 704 352.2 C 704 354.8 699.8 359.2 695.6 361.1 C 691.3 363 684.4 363.6 682.2 362.1 L 682.2 362.1 Z" stroke-linecap="round" />
</g>
		<g transform="matrix(1 0 0 1 139.54 -188.95)"  >
<path style="stroke: none; stroke-width: 1; stroke-dasharray: none; stroke-linecap: butt; stroke-dashoffset: 0; stroke-linejoin: miter; stroke-miterlimit: 4; fill: rgb(9,91,7); fill-rule: nonzero; opacity: 1;" vector-effect="non-scaling-stroke"  transform=" translate(-751.04, -343.55)" d="M 741 352.6 C 741 339.3 747.6 327 754.8 327 C 766.4 327 761.1 343.6 745.6 356.4 L 741 360.1 L 741 352.6 Z" stroke-linecap="round" />
</g>
		<g transform="matrix(1 0 0 1 -107.25 -180.43)"  >
<path style="stroke: none; stroke-width: 1; stroke-dasharray: none; stroke-linecap: butt; stroke-dashoffset: 0; stroke-linejoin: miter; stroke-miterlimit: 4; fill: rgb(9,91,7); fill-rule: nonzero; opacity: 1;" vector-effect="non-scaling-stroke"  transform=" translate(-504.25, -352.07)" d="M 497 355.6 C 497 352.6 498.4 350.9 502.1 349 C 509.2 345.3 514.2 347 509.9 351.7 C 505.4 356.4 497 359 497 355.6 Z" stroke-linecap="round" />
</g>
		<g transform="matrix(1 0 0 1 9.53 -187.5)"  >
<path style="stroke: none; stroke-width: 1; stroke-dasharray: none; stroke-linecap: butt; stroke-dashoffset: 0; stroke-linejoin: miter; stroke-miterlimit: 4; fill: rgb(9,91,7); fill-rule: nonzero; opacity: 1;" vector-effect="non-scaling-stroke"  transform=" translate(-621.03, -345)" d="M 618 352.1 C 616.5 349.1 616.8 339.7 618.5 337.4 C 620 335.5 620.1 335.6 622.5 338.3 C 625.7 341.9 625.9 347.6 622.9 351.4 C 620.5 354.5 619.4 354.7 618 352.1 Z" stroke-linecap="round" />
</g>
		<g transform="matrix(1 0 0 1 -172.55 -200.96)"  >
<path style="stroke: none; stroke-width: 1; stroke-dasharray: none; stroke-linecap: butt; stroke-dashoffset: 0; stroke-linejoin: miter; stroke-miterlimit: 4; fill: rgb(9,91,7); fill-rule: nonzero; opacity: 1;" vector-effect="non-scaling-stroke"  transform=" translate(-438.95, -331.54)" d="M 436 344.5 C 433.8 342.2 433.5 340.8 433.2 331.9 C 432.7 321.2 434 316 437 316 C 440.8 316 443.5 321.9 444.6 332.8 C 445.8 345.3 441.8 350.7 436 344.5 Z" stroke-linecap="round" />
</g>
		<g transform="matrix(1 0 0 1 -68.68 -190.99)"  >
<path style="stroke: none; stroke-width: 1; stroke-dasharray: none; stroke-linecap: butt; stroke-dashoffset: 0; stroke-linejoin: miter; stroke-miterlimit: 4; fill: rgb(9,91,7); fill-rule: nonzero; opacity: 1;" vector-effect="non-scaling-stroke"  transform=" translate(-542.82, -341.51)" d="M 538.8 344.3 C 532.9 341 532.2 339.4 536 337.5 C 542 334.4 552 336.5 552 340.9 C 552 343.2 547.9 347 545.4 347 C 544.4 347 541.4 345.8 538.8 344.3 L 538.8 344.3 Z" stroke-linecap="round" />
</g>
		<g transform="matrix(1 0 0 1 57.55 -192.84)"  >
<path style="stroke: none; stroke-width: 1; stroke-dasharray: none; stroke-linecap: butt; stroke-dashoffset: 0; stroke-linejoin: miter; stroke-miterlimit: 4; fill: rgb(9,91,7); fill-rule: nonzero; opacity: 1;" vector-effect="non-scaling-stroke"  transform=" translate(-669.05, -339.66)" d="M 666 345.1 C 664.4 342 664.8 334.4 666.6 332.9 C 670.5 329.7 675.5 342.1 671.8 345.8 C 670 347.6 667.2 347.2 666 345.1 L 666 345.1 Z" stroke-linecap="round" />
</g>
		<g transform="matrix(1 0 0 1 -200.44 -195.43)"  >
<path style="stroke: none; stroke-width: 1; stroke-dasharray: none; stroke-linecap: butt; stroke-dashoffset: 0; stroke-linejoin: miter; stroke-miterlimit: 4; fill: rgb(9,91,7); fill-rule: nonzero; opacity: 1;" vector-effect="non-scaling-stroke"  transform=" translate(-411.06, -337.07)" d="M 408.2 340 C 401.1 334.9 400.1 331 405.8 331 C 411.5 331 420 337.6 420 341.9 C 420 344.3 412.3 343 408.2 340 L 408.2 340 Z" stroke-linecap="round" />
</g>
		<g transform="matrix(1 0 0 1 -111.44 -199.5)"  >
<path style="stroke: none; stroke-width: 1; stroke-dasharray: none; stroke-linecap: butt; stroke-dashoffset: 0; stroke-linejoin: miter; stroke-miterlimit: 4; fill: rgb(9,91,7); fill-rule: nonzero; opacity: 1;" vector-effect="non-scaling-stroke"  transform=" translate(-500.06, -333)" d="M 493.6 341.4 C 491.2 335.1 498.9 323 505.4 323 C 507.1 323 507.2 323.5 506.7 327.5 C 505.6 335.4 500.6 343 496.4 343 C 495.2 343 493.9 342.3 493.6 341.4 Z" stroke-linecap="round" />
</g>
		<g transform="matrix(1 0 0 1 85.52 -203.21)"  >
<path style="stroke: none; stroke-width: 1; stroke-dasharray: none; stroke-linecap: butt; stroke-dashoffset: 0; stroke-linejoin: miter; stroke-miterlimit: 4; fill: rgb(9,91,7); fill-rule: nonzero; opacity: 1;" vector-effect="non-scaling-stroke"  transform=" translate(-697.02, -329.29)" d="M 686.7 341.2 C 684.6 338.9 684.5 333.8 686.4 330.2 C 688.4 326.3 697.4 318.2 701.5 316.4 C 705.5 314.8 709 315.9 709 318.8 C 709 323.7 700.9 336.2 694.8 340.7 C 691 343.5 688.9 343.6 686.7 341.2 Z" stroke-linecap="round" />
</g>
		<g transform="matrix(1 0 0 1 163.43 -198.91)"  >
<path style="stroke: none; stroke-width: 1; stroke-dasharray: none; stroke-linecap: butt; stroke-dashoffset: 0; stroke-linejoin: miter; stroke-miterlimit: 4; fill: rgb(9,91,7); fill-rule: nonzero; opacity: 1;" vector-effect="non-scaling-stroke"  transform=" translate(-774.93, -333.59)" d="M 765.7 342.3 C 764.1 340.8 765.2 336.8 768.2 333.5 C 774.4 326.4 782.7 322.1 784.5 325.1 C 785.7 327 784 332.9 781.3 336 C 777.1 341 768 344.7 765.7 342.3 L 765.7 342.3 Z" stroke-linecap="round" />
</g>
		<g transform="matrix(1 0 0 1 188.04 -193.54)"  >
<path style="stroke: none; stroke-width: 1; stroke-dasharray: none; stroke-linecap: butt; stroke-dashoffset: 0; stroke-linejoin: miter; stroke-miterlimit: 4; fill: rgb(9,91,7); fill-rule: nonzero; opacity: 1;" vector-effect="non-scaling-stroke"  transform=" translate(-799.54, -338.96)" d="M 791.8 341.9 C 789.2 340.4 789.6 339.2 793.3 337 C 796.8 334.8 803.9 334.3 807.1 336 C 809.8 337.5 809.5 340.5 806.5 341.8 C 803.3 343.3 794.1 343.3 791.8 341.9 L 791.8 341.9 Z" stroke-linecap="round" />
</g>
		<g transform="matrix(1 0 0 1 -41.97 -218.06)"  >
<path style="stroke: none; stroke-width: 1; stroke-dasharray: none; stroke-linecap: butt; stroke-dashoffset: 0; stroke-linejoin: miter; stroke-miterlimit: 4; fill: rgb(9,91,7); fill-rule: nonzero; opacity: 1;" vector-effect="non-scaling-stroke"  transform=" translate(-569.53, -314.44)" d="M 563 327 C 559.8 319.3 565.1 301.7 571.4 299.5 C 573.7 298.7 574.4 298.9 575.6 300.5 C 579 305.1 576 318.9 569.9 326.3 C 566.2 330.8 564.6 331 563 327 Z" stroke-linecap="round" />
</g>
		<g transform="matrix(1 0 0 1 -84.39 -217.56)"  >
<path style="stroke: none; stroke-width: 1; stroke-dasharray: none; stroke-linecap: butt; stroke-dashoffset: 0; stroke-linejoin: miter; stroke-miterlimit: 4; fill: rgb(9,91,7); fill-rule: nonzero; opacity: 1;" vector-effect="non-scaling-stroke"  transform=" translate(-527.11, -314.94)" d="M 528.4 324.1 C 522.7 320.8 514.3 312 513.4 308.4 C 511.6 301.3 523.5 301.1 532.4 308.1 C 536.3 311.1 541 318.8 541 322 C 541 327.7 536.2 328.5 528.4 324.1 Z" stroke-linecap="round" />
</g>
		<g transform="matrix(1 0 0 1 9.5 -209.5)"  >
<path style="stroke: none; stroke-width: 1; stroke-dasharray: none; stroke-linecap: butt; stroke-dashoffset: 0; stroke-linejoin: miter; stroke-miterlimit: 4; fill: rgb(9,91,7); fill-rule: nonzero; opacity: 1;" vector-effect="non-scaling-stroke"  transform=" translate(-621, -323)" d="M 616 324.5 C 612.8 321.1 614.6 319 621 319 C 627.4 319 629.2 321.1 626 324.5 C 624.6 326 622.5 327 621 327 C 619.5 327 617.4 326 616 324.5 Z" stroke-linecap="round" />
</g>
		<g transform="matrix(1 0 0 1 129.5 -213.5)"  >
<path style="stroke: none; stroke-width: 1; stroke-dasharray: none; stroke-linecap: butt; stroke-dashoffset: 0; stroke-linejoin: miter; stroke-miterlimit: 4; fill: rgb(9,91,7); fill-rule: nonzero; opacity: 1;" vector-effect="non-scaling-stroke"  transform=" translate(-741, -319)" d="M 734.3 321.5 C 730.7 320 729.8 316.7 732.6 315.6 C 735.5 314.5 744 315 747.5 316.4 C 751.2 318 752.3 321.3 749.4 322.4 C 746.6 323.5 737.6 323 734.3 321.5 L 734.3 321.5 Z" stroke-linecap="round" />
</g>
		<g transform="matrix(1 0 0 1 -142.5 -217.5)"  >
<path style="stroke: none; stroke-width: 1; stroke-dasharray: none; stroke-linecap: butt; stroke-dashoffset: 0; stroke-linejoin: miter; stroke-miterlimit: 4; fill: rgb(9,91,7); fill-rule: nonzero; opacity: 1;" vector-effect="non-scaling-stroke"  transform=" translate(-469, -315)" d="M 462.3 317.5 C 458.7 316 457.8 312.7 460.6 311.6 C 463.5 310.5 472 311 475.5 312.4 C 479.2 314 480.3 317.3 477.4 318.4 C 474.6 319.5 465.6 319 462.3 317.5 L 462.3 317.5 Z" stroke-linecap="round" />
</g>
		<g transform="matrix(1 0 0 1 -60.68 -235.49)"  >
<path style="stroke: none; stroke-width: 1; stroke-dasharray: none; stroke-linecap: butt; stroke-dashoffset: 0; stroke-linejoin: miter; stroke-miterlimit: 4; fill: rgb(9,91,7); fill-rule: nonzero; opacity: 1;" vector-effect="non-scaling-stroke"  transform=" translate(-550.82, -297.01)" d="M 546.9 309.3 C 544.7 306.7 544.4 290.1 546.4 286.1 C 548.4 282.3 551.1 282.1 553.9 285.5 C 556.9 289.4 557.3 293.2 555.5 300.2 C 553 310.1 550.1 313.2 546.9 309.3 Z" stroke-linecap="round" />
</g>
		<g transform="matrix(1 0 0 1 -22.35 -230.91)"  >
<path style="stroke: none; stroke-width: 1; stroke-dasharray: none; stroke-linecap: butt; stroke-dashoffset: 0; stroke-linejoin: miter; stroke-miterlimit: 4; fill: rgb(9,91,7); fill-rule: nonzero; opacity: 1;" vector-effect="non-scaling-stroke"  transform=" translate(-589.15, -301.59)" d="M 586.9 306.5 C 585.6 303.5 585.1 300.9 585.5 299.1 C 586.2 295.8 589.7 291.7 591.3 292.3 C 592.6 292.7 593.5 304.9 592.5 308.7 C 591.6 312.4 589.1 311.4 586.9 306.5 Z" stroke-linecap="round" />
</g>
		<g transform="matrix(1 0 0 1 27.87 -229.5)"  >
<path style="stroke: none; stroke-width: 1; stroke-dasharray: none; stroke-linecap: butt; stroke-dashoffset: 0; stroke-linejoin: miter; stroke-miterlimit: 4; fill: rgb(9,91,7); fill-rule: nonzero; opacity: 1;" vector-effect="non-scaling-stroke"  transform=" translate(-639.37, -303)" d="M 631.4 308.6 C 626.3 306.2 621.6 301.6 622.3 299.6 C 623.1 297.1 629.6 295 636.5 295 C 645.1 295 650.2 296.3 653.7 299.6 L 656.5 302 L 653.5 304.5 C 650.4 307.1 641.2 311 638.2 311 C 637.3 311 634.2 309.9 631.4 308.6 L 631.4 308.6 Z" stroke-linecap="round" />
</g>
		<g transform="matrix(1 0 0 1 75.43 -225.52)"  >
<path style="stroke: none; stroke-width: 1; stroke-dasharray: none; stroke-linecap: butt; stroke-dashoffset: 0; stroke-linejoin: miter; stroke-miterlimit: 4; fill: rgb(9,91,7); fill-rule: nonzero; opacity: 1;" vector-effect="non-scaling-stroke"  transform=" translate(-686.93, -306.98)" d="M 679.3 309.9 C 677.4 308 677.7 307.2 681.3 305 C 685.3 302.5 693.2 302.3 695 304.6 C 696.1 305.9 696 306.5 694.2 308.2 C 691.6 310.8 681.3 312 679.3 309.9 L 679.3 309.9 Z" stroke-linecap="round" />
</g>
		<g transform="matrix(1 0 0 1 -116.35 -232.08)"  >
<path style="stroke: none; stroke-width: 1; stroke-dasharray: none; stroke-linecap: butt; stroke-dashoffset: 0; stroke-linejoin: miter; stroke-miterlimit: 4; fill: rgb(9,91,7); fill-rule: nonzero; opacity: 1;" vector-effect="non-scaling-stroke"  transform=" translate(-495.15, -300.42)" d="M 489.3 308.3 C 488.2 305.6 497.3 291 500.1 291 C 501.9 291 501.1 301.4 499 304.8 C 496.2 309.4 490.5 311.5 489.3 308.3 L 489.3 308.3 Z" stroke-linecap="round" />
</g>
		<g transform="matrix(1 0 0 1 103.45 -235.53)"  >
<path style="stroke: none; stroke-width: 1; stroke-dasharray: none; stroke-linecap: butt; stroke-dashoffset: 0; stroke-linejoin: miter; stroke-miterlimit: 4; fill: rgb(9,91,7); fill-rule: nonzero; opacity: 1;" vector-effect="non-scaling-stroke"  transform=" translate(-714.95, -296.97)" d="M 712 304.5 C 709.9 302.3 709.5 300.7 709.2 294.4 C 708.9 289.8 709.2 287 709.8 287 C 712.5 287 721.3 300.7 720.8 304.2 C 720.3 307.7 715.2 307.9 712 304.5 Z" stroke-linecap="round" />
</g>
		<g transform="matrix(1 0 0 1 130.48 -240.94)"  >
<path style="stroke: none; stroke-width: 1; stroke-dasharray: none; stroke-linecap: butt; stroke-dashoffset: 0; stroke-linejoin: miter; stroke-miterlimit: 4; fill: rgb(9,91,7); fill-rule: nonzero; opacity: 1;" vector-effect="non-scaling-stroke"  transform=" translate(-741.98, -291.56)" d="M 731.7 302.3 C 729.3 300 733 290.9 738.1 286.6 C 742.1 283.2 748.3 280 751 280 C 756.1 280 750.9 291.4 742.2 299 C 738 302.7 733.5 304.2 731.7 302.3 L 731.7 302.3 Z" stroke-linecap="round" />
</g>
		<g transform="matrix(1 0 0 1 -137.17 -245.5)"  >
<path style="stroke: none; stroke-width: 1; stroke-dasharray: none; stroke-linecap: butt; stroke-dashoffset: 0; stroke-linejoin: miter; stroke-miterlimit: 4; fill: rgb(9,91,7); fill-rule: nonzero; opacity: 1;" vector-effect="non-scaling-stroke"  transform=" translate(-474.33, -287)" d="M 472.8 296.3 C 465.9 288.9 463.1 275 468.5 275 C 472.4 275 483 288.1 483 293 C 483 296.1 480.3 299 477.4 299 C 476.3 299 474.2 297.8 472.8 296.3 Z" stroke-linecap="round" />
</g>
		<g transform="matrix(1 0 0 1 -80.47 -248.79)"  >
<path style="stroke: none; stroke-width: 1; stroke-dasharray: none; stroke-linecap: butt; stroke-dashoffset: 0; stroke-linejoin: miter; stroke-miterlimit: 4; fill: rgb(9,91,7); fill-rule: nonzero; opacity: 1;" vector-effect="non-scaling-stroke"  transform=" translate(-531.03, -283.71)" d="M 527.9 292.4 C 525.9 290.2 525.5 288.6 525.1 281.8 C 524.7 272.3 525.6 270.8 529.9 274 C 535.7 278 538.8 287.8 536 293.1 C 534.5 295.8 530.8 295.5 527.9 292.4 L 527.9 292.4 Z" stroke-linecap="round" />
</g>
		<g transform="matrix(1 0 0 1 79.39 -246.67)"  >
<path style="stroke: none; stroke-width: 1; stroke-dasharray: none; stroke-linecap: butt; stroke-dashoffset: 0; stroke-linejoin: miter; stroke-miterlimit: 4; fill: rgb(9,91,7); fill-rule: nonzero; opacity: 1;" vector-effect="non-scaling-stroke"  transform=" translate(-690.89, -285.83)" d="M 681.7 294.3 C 681.3 294 681 292.7 681 291.5 C 681 287.1 697.7 274.3 700.2 276.8 C 701.9 278.5 700 282 693.5 288.6 C 687.6 294.6 683.8 296.5 681.7 294.3 Z" stroke-linecap="round" />
</g>
		<g transform="matrix(1 0 0 1 -5.37 -261.5)"  >
<path style="stroke: none; stroke-width: 1; stroke-dasharray: none; stroke-linecap: butt; stroke-dashoffset: 0; stroke-linejoin: miter; stroke-miterlimit: 4; fill: rgb(9,91,7); fill-rule: nonzero; opacity: 1;" vector-effect="non-scaling-stroke"  transform=" translate(-606.13, -271)" d="M 604.8 289.3 C 602.1 286.2 599.3 279.7 598.6 274.9 C 597.8 269.5 599.4 258 601.6 253.8 C 607.6 242.3 617.5 268.9 612.5 283.1 C 611 287.3 608.4 291 607 291 C 606.6 291 605.6 290.2 604.8 289.3 L 604.8 289.3 Z" stroke-linecap="round" />
</g>
		<g transform="matrix(1 0 0 1 113.5 -249.5)"  >
<path style="stroke: none; stroke-width: 1; stroke-dasharray: none; stroke-linecap: butt; stroke-dashoffset: 0; stroke-linejoin: miter; stroke-miterlimit: 4; fill: rgb(9,91,7); fill-rule: nonzero; opacity: 1;" vector-effect="non-scaling-stroke"  transform=" translate(-725, -283)" d="M 722 289.1 C 721.5 288 721 285.3 721 283 C 721 277.9 722.5 275 725 275 C 727.5 275 729 277.9 729 283 C 729 288.1 727.5 291 725 291 C 723.9 291 722.6 290.1 722 289.1 Z" stroke-linecap="round" />
</g>
		<g transform="matrix(1 0 0 1 37.45 -261.45)"  >
<path style="stroke: none; stroke-width: 1; stroke-dasharray: none; stroke-linecap: butt; stroke-dashoffset: 0; stroke-linejoin: miter; stroke-miterlimit: 4; fill: rgb(9,91,7); fill-rule: nonzero; opacity: 1;" vector-effect="non-scaling-stroke"  transform=" translate(-648.95, -271.05)" d="M 634.3 282.3 C 629.3 280.3 640.1 267.6 651.4 262 C 662.1 256.7 667.6 259 663.5 266.9 C 660.7 272.5 655.6 277.3 649.5 280.2 C 643.9 282.8 637.6 283.7 634.3 282.3 L 634.3 282.3 Z" stroke-linecap="round" />
</g>
		<g transform="matrix(1 0 0 1 -29.99 -265)"  >
<path style="stroke: none; stroke-width: 1; stroke-dasharray: none; stroke-linecap: butt; stroke-dashoffset: 0; stroke-linejoin: miter; stroke-miterlimit: 4; fill: rgb(9,91,7); fill-rule: nonzero; opacity: 1;" vector-effect="non-scaling-stroke"  transform=" translate(-581.51, -267.5)" d="M 574 278 C 574 277.5 574.9 276.6 576.1 276 C 578.5 274.7 581 269.3 581 265.3 C 581 261.9 584.4 256 586.4 256 C 590.7 256 589.4 268.5 584.6 273.8 C 581 277.8 574 280.6 574 278 L 574 278 Z" stroke-linecap="round" />
</g>
		<g transform="matrix(1 0 0 1 16.05 -274.04)"  >
<path style="stroke: none; stroke-width: 1; stroke-dasharray: none; stroke-linecap: butt; stroke-dashoffset: 0; stroke-linejoin: miter; stroke-miterlimit: 4; fill: rgb(9,91,7); fill-rule: nonzero; opacity: 1;" vector-effect="non-scaling-stroke"  transform=" translate(-627.55, -258.46)" d="M 623.6 267.8 C 620.1 262.8 623.6 248 628.4 247.1 C 634.5 246 634.4 261.5 628.3 268.2 C 626.2 270.5 625.4 270.5 623.6 267.8 L 623.6 267.8 Z" stroke-linecap="round" />
</g>
		<g transform="matrix(1 0 0 1 -41.48 -281.1)"  >
<path style="stroke: none; stroke-width: 1; stroke-dasharray: none; stroke-linecap: butt; stroke-dashoffset: 0; stroke-linejoin: miter; stroke-miterlimit: 4; fill: rgb(9,91,7); fill-rule: nonzero; opacity: 1;" vector-effect="non-scaling-stroke"  transform=" translate(-570.02, -251.4)" d="M 568.8 260.9 C 564.7 258.6 563.5 241 567.5 241 C 569 241 575 253.8 575 257.1 C 575 261.3 572.3 263 568.8 260.9 L 568.8 260.9 Z" stroke-linecap="round" />
</g>
</g>
</g>
</svg>