<?xml version="1.0" encoding="utf-8"?>
<!DOCTYPE svg PUBLIC "-//W3C//DTD SVG 20010904//EN" "http://www.w3.org/TR/2001/REC-SVG-20010904/DTD/svg10.dtd">
<svg version="1.0" xmlns="http://www.w3.org/2000/svg" width="174px" height="167px" viewBox="0 0 174 167" preserveAspectRatio="xMidYMid meet">
 <g fill="#ffffff">
  <path d="M0 83.5 l0 -83.5 87 0 87 0 0 83.5 0 83.5 -87 0 -87 0 0 -83.5z"/>
 </g>
 <g fill="#264f2d">
  <path d="M85.2 149.8 c0.6 -1.8 1.6 -3.6 2.2 -4 0.6 -0.4 0.7 -0.8 0.2 -0.8 -0.5 0 -0.4 -0.6 0.3 -1.3 1.6 -1.9 1.7 -11.7 0.2 -12.7 -1 -0.5 -1 -1.3 -0.2 -2.7 1.2 -2.4 0.8 -13 -0.6 -14.4 -1.5 -1.5 -4.8 0.8 -6.9 4.7 -1.4 2.6 -1.5 3.5 -0.5 4.7 0.6 0.8 1.4 2.5 1.6 3.7 0.2 1.2 1.2 3.4 2 4.7 1.9 2.8 1.4 3.9 -1.2 2.8 -1 -0.5 -2.1 -0.8 -2.5 -0.7 -0.3 0.1 -0.6 -2.2 -0.6 -5 -0.1 -2.8 -0.5 -5.5 -1 -6 -1 -1 -10.3 4.8 -12.2 7.7 -0.8 1.1 -1.7 3.4 -2.1 5 l-0.8 3 0.3 -3 c0.2 -1.6 0.7 -4.1 1.2 -5.4 0.6 -2.2 0.5 -2.3 -2 -1.9 -2.6 0.5 -2.6 0.5 -0.9 -1.4 1.2 -1.4 2.6 -1.8 4.5 -1.4 2 0.4 3.3 -0.1 5.5 -2.3 6.8 -6.8 13.3 -16.9 13.3 -20.6 0 -2 0.5 -2.5 2.4 -2.5 1.8 0 2.9 1 4.3 3.7 1.8 3.8 2.8 4.5 11.6 8.4 2.7 1.2 5.1 2.9 5.3 3.8 0.3 0.9 1.3 3.7 2.4 6.3 1.7 4.5 1.7 4.7 0 3.8 -0.9 -0.5 -2.2 -2.9 -2.9 -5.3 -1.3 -5.2 -3.2 -7.1 -6.1 -6.2 -1.9 0.6 -2.1 1.3 -1.8 4.6 0.5 5.5 -0.9 4.9 -1.8 -0.7 -0.5 -3.7 -1.3 -5 -3.8 -6.5 -2.8 -1.7 -3.1 -1.7 -3.4 -0.3 -0.5 2.3 2.7 12.4 5.1 15.7 2.7 3.9 1.4 4.6 -1.5 0.7 -2.3 -3.1 -2.3 -3.1 -2.9 -0.8 -0.4 1.3 -0.7 5.6 -0.8 9.6 -0.1 3.9 -0.5 7.2 -0.9 7.2 -0.5 0 -1.9 2 -3.1 4.5 -2.6 5.3 -3.4 5.8 -1.9 1.3z"/>
  <path d="M91.6 151.4 c-0.9 -2.4 -0.7 -2.8 0.9 -1.4 1.7 1.4 2 3 0.6 3 -0.5 0 -1.2 -0.7 -1.5 -1.6z"/>
  <path d="M139.9 122.5 c-1.4 -0.8 -3.2 -2.7 -3.8 -4.3 -0.7 -1.6 -2.6 -3.9 -4.2 -5.1 -2.5 -1.9 -3 -2 -3.5 -0.6 -0.3 0.8 -0.3 2.2 0 3.1 0.3 0.8 0.2 1.2 -0.4 0.9 -1.3 -0.8 -1.3 -4.8 -0.1 -6 1.4 -1.4 -1.5 -7 -4.5 -8.5 -3.3 -1.8 -2.2 -2.6 1.5 -1 1.6 0.6 3.5 2.5 4.1 4 1.7 4.2 7.5 8.3 10.9 7.8 1.6 -0.2 3.3 0.2 4.1 1 1.2 1.3 0.7 1.4 -3.3 0.8 -2.6 -0.4 -4.7 -0.4 -4.7 -0.1 0 1.9 3.4 6.7 5.8 7.9 1.5 0.9 2.3 1.5 1.7 1.5 -0.5 0 -2.2 -0.6 -3.6 -1.4z"/>
  <path d="M54.1 117.8 c9.1 -8.4 10 -17.1 1.7 -15.3 -4.5 1 -6.8 3.2 -6.8 6.6 0 1.5 -0.5 3.1 -1 3.4 -0.7 0.4 -0.9 -0.2 -0.5 -1.7 0.3 -1.2 0.1 -2.9 -0.4 -3.7 -2.1 -3.2 -12.1 4.3 -12.1 9 0 1.1 -0.4 1.7 -1 1.4 -0.6 -0.4 -0.4 -1.7 0.5 -3.5 1.9 -3.7 1.9 -4.4 -0.2 -3.5 -4.1 1.5 0.7 -1.6 8.9 -5.9 8.3 -4.4 9.2 -4.6 16.5 -4.5 4.3 0 7.1 0.3 6.3 0.6 -2.5 1 -2.8 2.2 -2.5 9.6 0.2 4.9 0 6.6 -0.6 5.4 -1.4 -2.3 -3 -2.1 -5.8 0.9 -1.3 1.3 -3.3 3 -4.5 3.5 -1.2 0.6 -0.5 -0.4 1.5 -2.3z"/>
  <path d="M71.8 112.4 c0.5 -5 -0.2 -5.4 -3 -1.8 -3.4 4.2 -3.3 1.8 0.1 -2.8 1.7 -2.3 3.1 -5 3.1 -6 0 -1 0.4 -1.8 0.9 -1.8 0.6 0 0.7 1.5 0.4 3.3 -0.3 1.8 0 4.9 0.5 6.9 0.8 3 0.7 3.9 -0.7 5.2 -1.5 1.3 -1.6 1.1 -1.3 -3z"/>
  <path d="M109.1 110.1 c-0.1 -0.7 0.8 -2.9 2 -4.7 1.1 -1.9 1.8 -3.8 1.4 -4.4 -0.3 -0.5 0.1 -1 0.9 -1 1.1 0 1.6 1 1.6 3 0 1.7 0.8 4.3 1.7 5.8 l1.7 2.7 -2.5 -2.2 c-1.4 -1.3 -3 -2.3 -3.6 -2.3 -0.5 0 -1.5 1 -2.1 2.3 -0.6 1.2 -1.1 1.6 -1.1 0.8z"/>
  <path d="M99.7 106.2 c-1 -1 -1.7 -2.4 -1.7 -3 0 -0.7 -0.4 -1.2 -1 -1.2 -0.5 0 -1 -0.4 -1 -1 0 -2.1 1.6 -0.8 3.7 3 2.4 4.5 2.4 4.8 0 2.2z"/>
  <path d="M20 77.9 l0 -11 4.2 0.3 c5.1 0.4 5.9 2.3 3.3 7.2 -1.7 3.1 -1.7 3.4 0.4 8 2.3 5.3 2.5 6.6 1.2 6.6 -0.5 0 -1.7 -2.3 -2.7 -5 -1 -2.8 -2.3 -4.9 -2.9 -4.7 -0.5 0.2 -1.1 2.5 -1.3 5 -0.2 2.6 -0.7 4.7 -1.3 4.7 -0.5 0 -0.9 -4.8 -0.9 -11.1z m7 -7.1 c0 -1.3 -0.8 -1.8 -2.5 -1.8 -2.3 0 -2.5 0.3 -2.5 4.8 l0 4.7 2.5 -3 c1.3 -1.6 2.4 -3.8 2.5 -4.7z"/>
  <path d="M33 87.6 c0 -1.3 2.1 -12.2 3.5 -18.4 1.1 -4.6 2.9 -1.4 5.1 8.9 1.9 8.9 2.3 12.5 1.1 10.8 -0.2 -0.2 -1.6 -2.4 -3.2 -4.9 -2.5 -3.9 -2.9 -4.2 -3.6 -2.5 -0.4 1.1 -0.8 3 -0.8 4.2 -0.1 2.4 -2.1 4.3 -2.1 1.9z m6.4 -11.4 c-0.7 -4.5 -2.4 -4.7 -2.4 -0.3 0 2.4 1.8 5.6 2.7 4.7 0.2 -0.2 0.1 -2.2 -0.3 -4.4z"/>
  <path d="M48 78 c0 -6.7 0.4 -11 1 -11 0.6 0 1 4.3 1 11 0 6.7 -0.4 11 -1 11 -0.6 0 -1 -4.3 -1 -11z"/>
  <path d="M53 87.9 c0 -0.6 1.4 -4.9 3 -9.6 1.7 -4.6 3 -8.6 3 -8.9 0 -0.2 -1.1 -0.4 -2.4 -0.4 -1.4 0 -2.8 -0.4 -3.1 -1 -0.4 -0.6 1 -1 3.4 -1 2.7 0 4.1 0.4 4.1 1.3 0 0.7 -1.3 5.2 -2.9 10 l-3 8.7 3.5 0 c1.9 0 3.4 0.5 3.4 1 0 0.6 -2 1 -4.5 1 -2.6 0 -4.5 -0.5 -4.5 -1.1z"/>
  <path d="M70 78 c0 -10.4 0.1 -11 2 -11 1.2 0 3.2 1.2 4.7 2.6 2.3 2.3 2.5 3.1 2.1 9.1 -0.3 5.4 -0.8 6.9 -2.7 8.4 -1.3 1.1 -3.2 1.9 -4.2 1.9 -1.7 0 -1.9 -0.9 -1.9 -11z m5.2 7.3 c2.7 -2.4 2.6 -12.3 -0.2 -14.8 -1.1 -1 -2.2 -1.6 -2.4 -1.4 -0.4 0.4 -0.9 13 -0.7 16.7 0.1 1.6 1.1 1.5 3.3 -0.5z"/>
  <path d="M83 78 l0 -11 3 0 c1.7 0 3 0.5 3 1 0 0.6 -0.9 1 -2 1 -2.5 0 -2.7 3.7 -0.2 4.3 1.6 0.4 1.6 0.5 0 0.6 -1.5 0.1 -1.8 1.1 -1.8 6.6 0 5.8 0.2 6.5 1.9 6.5 1.1 0 2.3 0.5 2.6 1 0.4 0.6 -0.8 1 -2.9 1 l-3.6 0 0 -11z"/>
  <path d="M98 78 c0 -6 0.3 -11 0.8 -11 0.4 0 1.9 1.4 3.3 3.1 l2.6 3.2 2.2 -3.2 c1.2 -1.7 2.7 -3.1 3.2 -3.1 0.5 0 0.9 4.9 0.9 11 0 13.4 -1.8 14.9 -2.2 1.8 l-0.3 -9.3 -2.1 3.3 -2.1 3.4 -2.1 -3.4 -2.2 -3.3 0 9.3 c0 5.4 -0.4 9.2 -1 9.2 -0.6 0 -1 -4.3 -1 -11z"/>
  <path d="M116 78 c0 -6.7 0.4 -11 1 -11 0.6 0 1 4.3 1 11 0 6.7 -0.4 11 -1 11 -0.6 0 -1 -4.3 -1 -11z"/>
  <path d="M123 78 c0 -6 0.3 -11 0.7 -11 0.4 0 2.2 1.4 4 3.2 l3.3 3.2 0 -3.2 c0 -1.8 0.5 -3.2 1 -3.2 0.6 0 1 4.3 1 11 0 6.7 -0.4 11 -1 11 -0.6 0 -1 -2.7 -1 -6 0 -5.2 -0.4 -6.4 -3 -9.2 l-2.9 -3.3 -0.1 9.3 c0 5.4 -0.4 9.2 -1 9.2 -0.6 0 -1 -4.3 -1 -11z"/>
  <path d="M136.4 87.3 c0.3 -1 1.3 -5.6 2.2 -10.3 1.7 -8.4 2.8 -11 4 -9.8 1.1 1.1 5.1 21.8 4.2 21.8 -0.5 0 -1.2 -1 -1.7 -2.2 -0.5 -1.3 -1.8 -3.1 -3 -4.2 -2.2 -2 -2.3 -1.9 -3.5 3.7 -0.4 1.5 -1.1 2.7 -1.7 2.7 -0.6 0 -0.8 -0.8 -0.5 -1.7z m7 -9 c-0.2 -1.6 -0.7 -3.9 -1.1 -5.3 -0.6 -2.4 -0.7 -2.3 -1.3 1 -0.4 2.4 -0.1 4.1 0.9 5.3 1.9 2.3 2 2.2 1.5 -1z"/>
  <path d="M150.7 88.3 c-1.5 -1.4 -0.6 -2.1 2.6 -1.9 2.8 0.1 3.2 -0.3 3.5 -2.6 0.2 -1.8 -0.7 -3.7 -2.8 -6.2 -2.4 -2.7 -3.1 -4.3 -2.8 -6.8 0.2 -2.8 0.8 -3.4 3.1 -3.6 2 -0.3 2.7 0.1 2.7 1.4 0 1.3 -0.3 1.4 -1.4 0.5 -1 -0.9 -1.6 -0.8 -2.6 0.4 -1.1 1.3 -0.7 2.4 2.4 6.9 3.9 5.7 4.5 8.6 2 11 -1.6 1.6 -5.5 2.2 -6.7 0.9z"/>
  <path d="M48 64.2 c0 -1.4 3.9 -4.6 4.7 -3.9 0.3 0.4 -0.2 1.6 -1.2 2.7 -1.9 2.1 -3.5 2.6 -3.5 1.2z"/>
  <path d="M73 57.5 c-2.9 -1.7 -10.1 -1.9 -14.9 -0.5 -1.9 0.5 -3.7 0.8 -3.9 0.6 -0.2 -0.3 1.5 -1 3.7 -1.7 2.3 -0.7 4 -1.5 3.9 -1.8 -1.6 -3 -4.9 -8.2 -7.7 -12 -1.8 -2.5 -2.4 -3.7 -1.2 -2.5 1.2 1.1 3.6 4.2 5.4 6.9 3.9 5.8 7 8.1 12 8.8 3.5 0.5 3.6 0.4 2.6 -1.4 -0.6 -1.2 -0.9 -2.2 -0.7 -2.4 0.2 -0.2 1.3 1.4 2.5 3.6 2.3 4.2 2.1 4.6 -1.7 2.4z"/>
  <path d="M84.8 50.1 c-0.5 -7.5 -1 -9.8 -3.6 -14.6 -1.7 -3.1 -2.4 -5.1 -1.6 -4.4 0.9 0.7 2.3 2.8 3.3 4.6 l1.7 3.4 1.2 -5.8 c0.8 -3.9 2.2 -7 4.2 -9.3 l3.1 -3.5 -2.5 4 c-3.2 5.1 -4.9 12.3 -4.2 17.2 0.3 2.1 0.5 4.2 0.6 4.8 0 0.5 1.4 -0.6 3 -2.5 l3.1 -3.5 -2.1 3.5 c-2.2 3.9 -2.7 9.6 -0.7 10.3 0.8 0.3 0.3 1.1 -1.3 2.5 -1.4 1.2 -2.8 2.1 -3.1 2.2 -0.3 0 -0.9 -4 -1.1 -8.9z"/>
  <path d="M90 58 c0 -0.6 3.3 -2.7 10.6 -7 2.7 -1.6 3.3 -2.6 3.9 -6.8 0.4 -2.8 1.3 -5.9 2.1 -6.9 1.4 -1.7 1.4 -1.7 0.5 0.4 -0.6 1.2 -1.2 4.3 -1.4 7 l-0.2 4.8 4.4 0.3 c4.2 0.3 4.6 0.1 10 -5.5 3.1 -3.2 4.7 -4.7 3.6 -3.3 -2.8 3.5 -6.5 8.8 -6.5 9.4 0 0.3 1.2 0.6 2.8 0.8 1.5 0.3 -0.4 0.4 -4.3 0.4 -3.8 0 -8.3 0.6 -9.9 1.3 l-2.9 1.1 2.2 1.9 c3.2 2.8 2.5 3.5 -0.9 1 -2.9 -2.2 -3 -2.2 -5 -0.4 -1.9 1.7 -9 2.9 -9 1.5z"/>
  <path d="M42.4 56.6 c-1.8 -1.4 -1.8 -1.5 0.9 -2.1 3.6 -0.9 8.9 1.1 6.6 2.6 -2.1 1.3 -5.2 1.1 -7.5 -0.5z"/>
  <path d="M135.7 56.8 c-3.6 -1.3 -2.9 -3.4 0.9 -3 2.9 0.4 4.7 1.9 3.8 3.4 -0.6 1 -1.1 0.9 -4.7 -0.4z"/>
  <path d="M107.5 56 c-0.4 -0.6 0.5 -1 1.9 -1 1.4 0 2.6 0.5 2.6 1 0 0.6 -0.9 1 -1.9 1 -1.1 0 -2.3 -0.4 -2.6 -1z"/>
  <path d="M79 51.5 c0 -1.4 0.5 -2.5 1 -2.5 0.6 0 1 1.1 1 2.5 0 1.4 -0.4 2.5 -1 2.5 -0.5 0 -1 -1.1 -1 -2.5z"/>
  <path d="M47.4 50.5 c-1.8 -1.5 -1.8 -1.5 1 -1.3 1.6 0.2 3.1 0.9 3.4 1.6 0.5 1.7 -2 1.5 -4.4 -0.3z"/>
  <path d="M42 49.1 c0 -1.1 0.5 -2.3 1 -2.6 0.6 -0.3 1 0.3 1 1.4 0 1.1 -0.4 2.3 -1 2.6 -0.5 0.3 -1 -0.3 -1 -1.4z"/>
  <path d="M127.9 49.6 c1.3 -1.5 5.1 -2.8 5.1 -1.7 0 1.4 -2.4 3.1 -4.3 3.1 -1.6 0 -1.7 -0.3 -0.8 -1.4z"/>
  <path d="M53 48 c-0.6 -1.1 -0.7 -2 -0.2 -2 1 0 3.2 2.1 3.2 3.2 0 1.6 -1.9 0.8 -3 -1.2z"/>
  <path d="M35 47.5 c0.7 -0.8 2.4 -1.5 3.7 -1.5 2.2 0 2.4 0.2 1.3 1.5 -0.7 0.8 -2.4 1.5 -3.7 1.5 -2.2 0 -2.4 -0.2 -1.3 -1.5z"/>
  <path d="M68.2 47.8 c-1.4 -1.4 -1.6 -3.8 -0.3 -3.8 1 0 2.6 3.9 1.9 4.6 -0.2 0.2 -1 -0.2 -1.6 -0.8z"/>
  <path d="M73 48.2 c0 -1 2.2 -3.2 3.2 -3.2 0.4 0 0.5 0.6 0.2 1.4 -0.6 1.6 -3.4 3 -3.4 1.8z"/>
  <path d="M122.9 47 c2.1 -1.9 4.1 -2.6 4.1 -1.6 0 1.2 -3.3 3.6 -4.8 3.6 -1.4 -0.1 -1.2 -0.5 0.7 -2z"/>
  <path d="M137.4 47.6 c-1 -0.8 -1.5 -1.8 -1.1 -2.2 0.4 -0.4 1.5 0 2.4 0.9 0.9 0.9 1.4 1.9 1.2 2.2 -0.3 0.2 -1.4 -0.2 -2.5 -0.9z"/>
  <path d="M60.7 47.3 c-1.1 -1 -0.8 -4.3 0.3 -4.3 0.6 0 1 1.1 1 2.5 0 2.6 -0.2 2.9 -1.3 1.8z"/>
  <path d="M40 44 c-0.8 -0.5 -1.1 -1.2 -0.8 -1.6 1 -0.9 3.8 0.3 3.8 1.6 0 1.2 -1 1.3 -3 0z"/>
  <path d="M72 42.6 c0 -2.5 2.5 -5.3 3.4 -3.8 0.8 1.4 -0.5 5 -2 5.6 -1 0.4 -1.4 -0.2 -1.4 -1.8z"/>
  <path d="M111 44.1 c0 -0.9 3.3 -4.1 4.4 -4.1 0.4 0 0.2 0.8 -0.3 1.9 -1.1 2 -4.1 3.6 -4.1 2.2z"/>
  <path d="M139.5 44 c-0.4 -0.6 0.7 -1 2.4 -1 1.7 0 3.1 0.5 3.1 1 0 0.6 -1.1 1 -2.4 1 -1.4 0 -2.8 -0.4 -3.1 -1z"/>
  <path d="M45 43.1 c0 -1.4 3.7 -2.3 6 -1.6 1.1 0.4 1.8 1.1 1.5 1.6 -0.8 1.2 -7.5 1.2 -7.5 0z"/>
  <path d="M128.2 42.8 c-3 -3 -0.5 -3.7 2.9 -0.8 2.3 1.9 2.3 1.9 0.4 2 -1.2 0 -2.6 -0.5 -3.3 -1.2z"/>
  <path d="M67.6 41.4 c-1.1 -2.7 -0.7 -3.7 0.9 -2.4 1.6 1.4 2 4 0.6 4 -0.5 0 -1.2 -0.7 -1.5 -1.6z"/>
  <path d="M94.5 42 c-0.3 -0.5 0.3 -1 1.4 -1 1.1 0 2.3 0.5 2.6 1 0.3 0.6 -0.3 1 -1.4 1 -1.1 0 -2.3 -0.4 -2.6 -1z"/>
  <path d="M136 42.2 c0 -0.5 0.7 -1.5 1.5 -2.2 0.8 -0.7 1.5 -0.8 1.5 -0.2 0 0.5 -0.7 1.5 -1.5 2.2 -0.8 0.7 -1.5 0.8 -1.5 0.2z"/>
  <path d="M118 39.6 c0 -2.7 1.5 -4.2 2.5 -2.6 0.8 1.3 -0.3 5 -1.6 5 -0.5 0 -0.9 -1.1 -0.9 -2.4z"/>
  <path d="M39.5 38 c-0.9 -1.5 0.4 -3 2.6 -3 2.8 0 6.1 1.9 5.4 3.1 -0.8 1.2 -7.2 1.2 -8 -0.1z"/>
  <path d="M70.2 37.8 c-1.5 -1.5 -1.6 -3.8 -0.2 -3.8 1.2 0 2.3 2.5 1.8 4 -0.2 0.7 -0.7 0.7 -1.6 -0.2z"/>
  <path d="M89.6 37.4 c-0.8 -2.1 -0.8 -2.4 0.3 -2.4 1.2 0 2.2 2.8 1.2 3.5 -0.5 0.3 -1.2 -0.2 -1.5 -1.1z"/>
  <path d="M132.8 38.2 c-2.2 -0.4 -2.3 -2.1 -0.3 -2.8 2 -0.8 6.7 0.4 6.1 1.5 -0.7 1.1 -3.7 1.8 -5.8 1.3z"/>
  <path d="M52.4 35.6 c-0.8 -3.2 -0.2 -5.8 1.3 -6.3 1.5 -0.5 2.7 3.8 1.8 6.6 -0.9 2.8 -2.3 2.6 -3.1 -0.3z"/>
  <path d="M96 36.5 c0 -0.8 0.9 -1.9 2 -2.5 1.5 -0.8 2 -0.8 2 0.3 0 1.4 -1.9 3.7 -3.2 3.7 -0.4 0 -0.8 -0.7 -0.8 -1.5z"/>
  <path d="M109 37.1 c0 -1 2.4 -2.1 4.7 -2.1 1.3 0 1.3 0.3 0.3 1.5 -1.3 1.6 -5 2.1 -5 0.6z"/>
  <path d="M63 36 c0 -1.2 2.8 -2.5 3.6 -1.7 0.3 0.3 -0.4 1 -1.5 1.7 -1.5 0.7 -2.1 0.7 -2.1 0z"/>
  <path d="M124 35.1 c0 -3.1 1.8 -6.1 3.5 -6.1 2.3 0 1.7 3.4 -1 6 l-2.5 2.3 0 -2.2z"/>
  <path d="M93 33.5 c0 -1.5 0.4 -2.4 1 -2 0.6 0.3 1 1.2 1 2 0 0.8 -0.4 1.7 -1 2 -0.6 0.4 -1 -0.5 -1 -2z"/>
  <path d="M47.7 33.3 c-1 -1 -0.8 -7.3 0.2 -7.3 1.1 0 2.1 2.5 2.1 5.6 0 2.3 -1 3.1 -2.3 1.7z"/>
  <path d="M73 33 c-1.2 -0.8 -1.2 -1 0.2 -1.5 2 -0.8 4.1 0.2 3.3 1.6 -0.8 1.1 -1.6 1.1 -3.5 -0.1z"/>
  <path d="M105 31.9 c0 -1.1 0.5 -1.7 1 -1.4 0.6 0.3 1 1.3 1 2.1 0 0.8 -0.4 1.4 -1 1.4 -0.5 0 -1 -0.9 -1 -2.1z"/>
  <path d="M40.5 31.9 c-1.2 -1.9 0.5 -2.3 2.2 -0.6 1.6 1.6 1.6 1.7 0.1 1.7 -0.9 0 -2 -0.5 -2.3 -1.1z"/>
  <path d="M62 31.6 c0 -1.4 2.7 -4.2 3.4 -3.5 0.2 0.2 0 1.4 -0.5 2.7 -0.9 2.4 -2.9 3 -2.9 0.8z"/>
  <path d="M110 31.1 c0 -1.8 3.4 -5.1 5.2 -5.1 1.5 0 0.8 2.6 -1.2 4.8 -2.6 2.7 -4 2.8 -4 0.3z"/>
  <path d="M130 32.2 c0 -1.4 3.9 -4.6 4.7 -3.8 0.4 0.4 0.2 1.5 -0.3 2.4 -1.2 1.9 -4.4 2.9 -4.4 1.4z"/>
  <path d="M136.5 32 c0.3 -0.5 1.5 -1 2.6 -1 1 0 1.9 0.5 1.9 1 0 0.6 -1.2 1 -2.6 1 -1.4 0 -2.3 -0.4 -1.9 -1z"/>
  <path d="M79.4 28.6 c-0.8 -2 1.1 -6.6 2.6 -6.6 1.5 0 1.2 4.2 -0.5 6.4 -1.3 1.8 -1.5 1.8 -2.1 0.2z"/>
  <path d="M69.2 27 c-1.2 -1.2 -2.2 -2.5 -2.2 -3 0 -1.7 3.6 -1.1 5.3 0.8 3.6 4 0.8 5.8 -3.1 2.2z"/>
  <path d="M92.5 28 c-0.3 -0.5 0.3 -1 1.5 -1 1.2 0 1.8 0.5 1.5 1 -0.3 0.6 -1 1 -1.5 1 -0.5 0 -1.2 -0.4 -1.5 -1z"/>
  <path d="M121.5 27 c-0.3 -0.6 0.5 -1 1.9 -1 1.4 0 2.8 0.5 3.1 1 0.3 0.6 -0.5 1 -1.9 1 -1.4 0 -2.8 -0.4 -3.1 -1z"/>
  <path d="M53.5 26 c-0.3 -0.6 0.5 -1 1.9 -1 1.4 0 2.8 0.5 3.1 1 0.3 0.6 -0.5 1 -1.9 1 -1.4 0 -2.8 -0.4 -3.1 -1z"/>
  <path d="M61 24.2 c0 -0.5 0.7 -1.7 1.5 -2.8 1.4 -1.9 1.4 -1.9 1.5 0.2 0 1.2 -0.7 2.4 -1.5 2.8 -0.8 0.3 -1.5 0.2 -1.5 -0.2z"/>
  <path d="M75 21.5 c0 -3.4 1.2 -4.6 2.5 -2.4 0.9 1.4 -0.3 5.9 -1.5 5.9 -0.6 0 -1 -1.6 -1 -3.5z"/>
  <path d="M85.3 23.4 c-0.3 -0.8 -0.1 -2 0.6 -2.7 0.8 -0.8 1.1 -0.4 1.1 1.6 0 3 -0.7 3.5 -1.7 1.1z"/>
  <path d="M95.7 23.9 c-0.9 -0.6 -1.5 -1.4 -1.2 -2 0.8 -1.1 5.5 -1.2 7.4 0 1.1 0.7 1 1.1 -0.7 2 -2.5 1.3 -3.2 1.3 -5.5 0z"/>
  <path d="M108.5 24 c0.3 -0.5 1.5 -1 2.6 -1 1.1 0 1.7 0.5 1.4 1 -0.3 0.6 -1.5 1 -2.6 1 -1.1 0 -1.7 -0.4 -1.4 -1z"/>
  <path d="M116.7 23.3 c-0.4 -0.3 -0.7 -1.6 -0.7 -2.7 0.1 -2.1 0.1 -2.1 1.5 -0.2 0.8 1.1 1.5 2.3 1.5 2.8 0 1 -1.4 1.1 -2.3 0.1z"/>
  <path d="M121.9 20.8 c0.7 -2 5.1 -4.6 5.1 -3 0 1.6 -3.2 5.2 -4.5 5.2 -1.1 0 -1.2 -0.6 -0.6 -2.2z"/>
  <path d="M55.8 19.5 c-0.6 -1.4 -0.8 -2.8 -0.5 -3.1 1 -1.1 3.7 1.7 3.7 3.7 0 2.7 -1.8 2.3 -3.2 -0.6z"/>
  <path d="M70.7 20.3 c-0.4 -0.3 -0.7 -1.7 -0.7 -3.1 0 -2.1 0.2 -2.2 1.5 -1.2 0.8 0.7 1.5 2.1 1.5 3.1 0 1.9 -1.1 2.5 -2.3 1.2z"/>
  <path d="M109 20.1 c0 -1.2 4.2 -4.2 4.9 -3.6 0.5 0.6 -2.9 4.5 -4.1 4.5 -0.4 0 -0.8 -0.4 -0.8 -0.9z"/>
  <path d="M89 17.9 c-1.2 -2.1 -0.4 -7.9 1 -7.9 1.4 0 2.8 5.4 1.9 7.8 -1 2.7 -1.5 2.8 -2.9 0.1z"/>
  <path d="M119 18 c0 -1.1 0.5 -2 1 -2 0.6 0 1 0.9 1 2 0 1.1 -0.4 2 -1 2 -0.5 0 -1 -0.9 -1 -2z"/>
  <path d="M97 17.1 c0 -0.5 1.2 -1.9 2.6 -3 4.7 -3.7 7.4 -2.1 3.4 1.9 -2 2 -6 2.7 -6 1.1z"/>
  <path d="M84 14.1 c0 -1.1 0.5 -2.3 1 -2.6 0.6 -0.3 1 0.3 1 1.4 0 1.1 -0.4 2.3 -1 2.6 -0.5 0.3 -1 -0.3 -1 -1.4z"/>
  <path d="M94.5 13.7 c-0.4 -1 -0.3 -2.3 0.4 -3 1.6 -1.6 2.6 0 1.4 2.5 -1 2.1 -1.1 2.2 -1.8 0.5z"/>
  <path d="M80.4 11.6 c-1 -2.7 0.2 -4.3 1.4 -1.9 0.8 1.4 0.9 2.4 0.2 2.8 -0.6 0.3 -1.3 -0.1 -1.6 -0.9z"/>
 </g>
</svg>