<?xml version="1.0" encoding="utf-8"?>
<!DOCTYPE svg PUBLIC "-//W3C//DTD SVG 20010904//EN" "http://www.w3.org/TR/2001/REC-SVG-20010904/DTD/svg10.dtd">
<svg version="1.0" xmlns="http://www.w3.org/2000/svg" width="693px" height="686px" viewBox="0 0 693 686" preserveAspectRatio="xMidYMid meet">
 <g fill="#095b07">
  <path d="M324.8 648.4 c-1.7 -2.8 6.3 -22.7 11 -27.8 1.8 -1.9 2.3 -3 1.5 -3.3 -1.8 -0.7 -1.6 -2.1 0.7 -5.4 3.1 -4.2 5 -14.9 5 -27.9 -0.1 -13.7 -1.2 -19.6 -4.7 -23.2 -2.8 -2.9 -2.7 -3.9 0.2 -11.8 3.6 -9.4 2.9 -43 -1.1 -53 -1.1 -2.6 -2.4 -4.2 -3.9 -4.6 -8 -2 -25.4 15.1 -28 27.4 -0.5 2.5 -0.1 4.4 1.8 8 1.4 2.6 3.9 9.5 5.5 15.2 3.2 11.1 5.3 16.1 10.2 25 4 7.1 3.7 9.5 -1 9.4 -1.9 -0.1 -6.5 -1.2 -10.3 -2.5 -7.8 -2.8 -7.2 -1 -8.7 -23.4 -0.5 -8.2 -1.4 -16.7 -2 -18.9 -1.1 -3.6 -1.3 -3.8 -4.2 -3.2 -7.9 1.6 -30.9 15.9 -40.4 25.1 -6.2 6.1 -9.4 12.1 -13 24.6 -3.1 10.6 -4.8 13.6 -3.9 6.9 1.8 -12.9 2.9 -19.1 4.7 -24.8 1 -3.5 1.8 -7.3 1.6 -8.5 -0.3 -2.4 -0.6 -2.4 -10.5 -1.2 -7.5 0.9 -7.8 0.2 -2.6 -5.6 5.6 -6.2 8.4 -7.3 17.5 -6.6 4.4 0.3 9.5 0.1 11.4 -0.5 9 -2.4 38.4 -36.1 51.7 -59.3 8 -13.7 10 -19.8 10.3 -29.8 0.1 -5.2 0.7 -9.3 1.4 -10.2 0.9 -1.1 3.3 -1.5 8.2 -1.5 11.1 0 13.6 1.8 21.3 15.5 4.1 7.2 10.8 13.9 20 20 9.7 6.5 17.1 9.5 23 9.5 3.6 0 4.8 -0.5 6.1 -2.5 2.3 -3.5 3 -3.1 3.8 1.5 0.5 3.3 1.9 5.3 7.5 10.8 4.3 4.2 7.2 7.9 7.6 9.7 1.9 8.3 4.1 15.1 8.6 25.7 2.7 6.4 4.9 12.5 4.9 13.6 0 2.5 -2.9 3.6 -7 2.7 -3.8 -0.8 -4.7 -2.1 -5.5 -8 -1.6 -11.2 -10.9 -35.1 -15 -38.5 -4.1 -3.4 -17.4 -1.9 -19.6 2.1 -0.6 1.2 -0.9 7.2 -0.7 14.9 0.2 8.4 -0.1 13.3 -0.8 14 -2.3 2.3 -4.3 -3 -7.4 -18.9 -2.3 -12 -5 -17.3 -11.2 -21.7 -5.2 -3.8 -12.2 -7.4 -14.2 -7.4 -3.6 0 -3.4 7.6 0.4 22.4 4.6 17.9 10.7 32.6 19.4 47 3.1 5.2 4.7 10.6 3.1 10.6 -1.9 0 -6.5 -4.4 -12.2 -11.7 -3.5 -4.5 -6.9 -8.3 -7.4 -8.3 -2.8 0 -4.6 12.2 -5.9 40 -1.3 27.5 -1.9 30.5 -6.2 35.1 -1.8 1.9 -6.5 9.5 -10.3 16.7 -7.6 14.4 -9.9 17.9 -10.7 16.6z"/>
  <path d="M355.7 647.2 c-1.7 -1.9 -4.7 -9.4 -4.7 -11.8 0 -2.7 3.3 -1.4 7.7 3 3.5 3.5 4.4 5.1 4.1 7.3 -0.4 3.5 -4.5 4.4 -7.1 1.5z"/>
  <path d="M553.7 530.6 c-11.3 -4.7 -17.7 -10.6 -23 -21.2 -3.6 -7.2 -10.7 -15.5 -17.8 -20.8 -7.6 -5.7 -10.3 -6 -11.9 -1 -1.1 3.2 -1 5.7 0.2 13.8 0.5 3.2 -2 2.9 -4.2 -0.6 -3 -4.9 -2.7 -13.6 0.6 -20.5 2.9 -6.3 2.7 -8.7 -1.8 -17.7 -3.5 -6.9 -10.8 -15 -15.8 -17.6 -1.9 -1 -4.6 -3 -5.9 -4.4 -2 -2.1 -2.1 -2.6 -0.9 -3.1 2.1 -0.8 9.1 1.1 15.1 4.1 6.5 3.3 11.7 9 16.2 17.6 10.9 20.9 39.2 34.9 49.9 24.9 3.2 -3 4.3 -2.6 4.9 2 0.6 4.4 2.2 6.2 4.7 5.3 0.8 -0.3 3.3 -0.8 5.7 -1.1 3.5 -0.5 4.3 -0.3 4.3 1 0 4.5 -9.8 5.8 -30.5 3.8 -4.4 -0.4 -9 -0.5 -10.2 -0.2 -2 0.6 -2 0.8 -0.9 4.3 3.4 9.8 13.3 21.7 23.3 28 9.4 5.9 8.4 7.6 -2 3.4z"/>
  <path d="M195 517.4 c0 -0.4 4.7 -5.6 10.5 -11.6 5.8 -6 12.5 -13.8 15 -17.2 19.3 -27.1 15.1 -46.2 -9.2 -41.2 -13.3 2.7 -22.7 8.6 -25.9 16.2 -0.7 1.7 -1.8 6.8 -2.3 11.4 -1.1 8.4 -3.2 13.5 -5.4 12.7 -0.8 -0.2 -1.2 -3.6 -1.2 -10.4 0 -8.5 -0.3 -10.4 -1.9 -12.2 -5.8 -6.4 -25 2.7 -38.6 18.4 -5.3 6.1 -8 11.5 -8.7 17.6 -0.7 6 -2.8 8.3 -4.9 5.4 -1.9 -2.6 -1.1 -6.1 3.7 -16.3 4 -8.6 4.8 -12.2 2.7 -12.2 -0.7 0 -3.2 0.7 -5.5 1.6 -5.1 2 -6.8 1.1 -3.3 -1.6 4.3 -3.3 21.8 -13.4 38.9 -22.5 33.1 -17.6 38.4 -19 69.6 -18.3 11.6 0.2 21.7 0.8 22.4 1.2 0.9 0.6 0.1 1.5 -2.6 3.2 -6.6 3.9 -6.8 4.8 -6.8 33.1 0 13.8 -0.3 25.5 -0.8 25.9 -0.4 0.4 -2.2 -0.9 -4.1 -2.9 -2.4 -2.6 -4.2 -3.7 -6.3 -3.7 -3.5 0 -5.8 1.5 -15.3 10.3 -10.4 9.7 -20 15.9 -20 13.1z"/>
  <path d="M273.6 500.4 c-0.3 -0.9 -0.6 -8.1 -0.6 -16 0 -11.6 -0.3 -14.4 -1.4 -14.4 -0.8 0 -4.6 3.7 -8.4 8.3 -6.8 7.9 -11.5 11.8 -12.8 10.4 -1.2 -1.2 1.7 -6.5 9.2 -16.9 8.4 -11.7 15.4 -24.7 15.4 -28.7 0 -3.4 2.2 -6.5 4.1 -5.9 1.1 0.4 1.4 3.7 1.5 16.9 0 13.3 0.5 18.2 2.2 25.8 2.7 11 2.1 14.2 -3.4 19.1 -3.9 3.4 -4.9 3.7 -5.8 1.4z"/>
  <path d="M450.8 475.1 c-4.2 -3.7 -9.2 -7.5 -11 -8.4 -4.2 -2.1 -5.9 -1 -11.1 6.6 -2.1 3.2 -4.2 5.7 -4.7 5.7 -2.4 0 -0.5 -5.8 5.7 -18.1 5 -9.7 6.8 -14.3 6.8 -17.3 0.1 -5.3 1 -6.6 4.4 -6.6 4.1 0 5.2 2 6.2 10.8 1.1 10 4 19.4 7.8 25.3 4.1 6.5 5.3 8.9 4.4 8.8 -0.4 0 -4.3 -3.1 -8.5 -6.8z"/>
  <path d="M387.4 463.8 c-5.5 -5.8 -7.8 -9.5 -8.8 -14.4 -0.5 -2.2 -1.6 -3.5 -3.9 -4.5 -2.5 -1.1 -3.3 -2.1 -3.5 -4.6 -0.3 -2.7 0 -3.3 1.7 -3.3 2.8 0 8 6.5 14.5 18.5 7.1 13 7.1 15.9 0 8.3z"/>
  <path d="M147.2 377.1 c-6.1 -9.2 -11.8 -17.1 -12.6 -17.4 -2.8 -1.1 -5.2 6 -7.1 21.3 -1.2 9.5 -7.6 14.9 -8.3 6.9 -0.4 -4.5 2.5 -21.6 8.8 -51.9 5.2 -25.2 5.9 -27.9 8.4 -29.9 1.3 -1.1 1.9 -0.9 4 1.4 4.6 5 12.9 35.6 18.6 69.1 2.4 13.8 2.5 17.4 0.6 17.4 -0.7 0 -6.3 -7.6 -12.4 -16.9z m-4.7 -27.8 c-1.3 -8 -2.7 -13.3 -3.6 -13.3 -1.6 0 -1 5.7 1.2 11.5 2.4 6.4 3.2 7 2.4 1.8z"/>
  <path d="M69.6 392.1 c-1.7 -2.7 -2.6 -20.7 -2.6 -52.7 l0 -35.2 6.8 0.5 c30.4 2 34.4 6.9 23.7 29.2 -3.3 6.8 -4.8 11.2 -4.8 14 0 2.7 2.2 9.3 6.7 20.1 4.2 9.9 6.8 17.7 6.9 20.3 0.2 3.9 0 4.2 -2.3 4.2 -3 0 -6 -5.1 -11.6 -19.2 -4.1 -10.6 -8.7 -18.3 -10.9 -18.3 -1.9 0 -4.1 7.9 -5.5 20.4 -0.7 5.5 -1.7 11.6 -2.3 13.5 -1.2 3.6 -3 5 -4.1 3.2z m18.4 -65.2 c3.7 -7.1 3.7 -8.3 0 -9.9 -7.3 -3 -10 1 -10 14.9 l0.1 8.6 3.4 -4 c1.9 -2.2 4.8 -6.5 6.5 -9.6z"/>
  <path d="M181.6 392.2 c-0.3 -0.5 -1.1 -5.3 -1.7 -10.5 -1.3 -10.9 -0.7 -66.9 0.8 -72.7 1.2 -4.7 3.5 -4.5 4.7 0.5 1.4 5.3 1.4 73.7 0 78.9 -0.9 3.9 -2.7 5.6 -3.8 3.8z"/>
  <path d="M203 391.7 c-2.6 -0.9 -3.6 -1.8 -3.8 -3.7 -0.1 -1.4 4.9 -17.8 11.3 -36.5 6.3 -18.7 11.5 -34.8 11.5 -35.7 0 -1 -0.6 -1.8 -1.2 -1.8 -6.5 -0.3 -16.3 -2.1 -18.4 -3.5 -2.4 -1.6 -2.5 -1.8 -1 -3.3 2.4 -2.4 20.8 -3 25.9 -0.8 3.1 1.2 3.7 2 3.7 4.5 0 3.8 -7.8 29.6 -16.4 54.4 -3.7 10.4 -6.6 19 -6.6 19.2 0 0.1 5.4 0.4 12 0.6 9.4 0.3 12.3 0.7 13.6 2.1 2.1 2.1 1.2 3.5 -3.4 4.8 -5 1.3 -22.9 1.2 -27.2 -0.3z"/>
  <path d="M269.3 390.3 c-1.6 -2.5 -1.8 -6 -1.8 -41.3 0 -35.3 0.2 -38.8 1.8 -41.3 3.8 -5.8 14 -2.4 24.9 8.2 8.7 8.6 9.2 10.7 8.5 31.1 -0.7 17.3 -2 25.7 -4.8 31.1 -3.6 7.1 -15.6 14.8 -23.1 14.9 -3 0 -4.1 -0.6 -5.5 -2.7z m14 -13.8 c7.6 -7 10.9 -21.1 8.3 -35.7 -0.8 -4.6 -2.1 -9.9 -3 -11.9 -1.8 -4.3 -7.5 -10.4 -8.7 -9.2 -1 1.1 -3.3 52.6 -2.4 56.9 0.3 1.9 0.9 3.4 1.3 3.4 0.4 0 2.4 -1.6 4.5 -3.5z"/>
  <path d="M319 349.1 l0 -44.1 8.9 0 c9.7 0 13.8 1 14.8 3.6 0.8 2.3 -2.2 4.4 -6.3 4.4 -10.7 0 -11.8 14.2 -1.4 17 4.5 1.2 4.5 3 0 3 -6.4 0 -7.5 4.1 -7.4 28 0.1 20.5 0.6 22.6 6.1 23.5 7 1.1 8 1.5 10.2 3.2 1.5 1.3 1.8 2.2 1.1 3.3 -0.7 1.2 -3.7 1.6 -13.5 1.8 l-12.5 0.4 0 -44.1z"/>
  <path d="M381.6 392.2 c-1.9 -3.1 -2.8 -22.8 -2.3 -50.9 0.5 -30.3 1 -36.3 2.9 -36.3 2.1 0 7.8 5.4 15.2 14.5 4.4 5.2 8.2 9.5 8.5 9.5 0.3 0 2.4 -2.8 4.6 -6.2 5.2 -8.1 14.4 -18 16.4 -17.6 2.6 0.5 3.2 6.4 3.8 36.8 0.5 29.6 -0.3 44.6 -2.8 49.2 -1.2 2.3 -1.3 2.3 -2.5 -0.9 -1.8 -4.3 -3.2 -20.5 -4 -47.6 l-0.7 -22.7 -8.1 12.9 c-4.4 7.1 -8.3 12.8 -8.6 12.6 -0.3 -0.2 -4.1 -6 -8.5 -13 l-8 -12.6 -0.6 33.3 c-0.3 18.3 -1 34.6 -1.6 36.2 -0.9 3.1 -2.7 4.4 -3.7 2.8z"/>
  <path d="M453.6 392.2 c-0.3 -0.5 -1.1 -5.3 -1.7 -10.5 -1.3 -10.9 -0.7 -66.9 0.8 -72.7 1.2 -4.7 3.5 -4.5 4.7 0.5 1.4 5.3 1.4 73.7 0 78.9 -0.9 3.9 -2.7 5.6 -3.8 3.8z"/>
  <path d="M481.6 392.2 c-3.3 -5.4 -3.5 -83.6 -0.2 -86.9 1.3 -1.3 6.5 2.7 17.7 13.5 l11.7 11.3 0.4 -11 c0.2 -8.9 0.6 -11.4 2 -12.8 1.2 -1.1 2.1 -1.4 2.8 -0.7 2.1 2.1 3.2 20.7 2.8 50.5 -0.5 31.7 -1.1 36.9 -4.7 36.9 -3.4 0 -4.1 -4.4 -4.1 -24.3 0 -17.8 -0.2 -19.5 -2.3 -23.9 -2.6 -5.6 -19.1 -24.8 -19.4 -22.7 -0.2 0.8 -0.7 15.6 -1.2 32.9 -0.5 17.3 -1.4 32.8 -1.8 34.4 -0.9 3 -2.7 4.4 -3.7 2.8z"/>
  <path d="M532.3 391.3 c-0.4 -0.9 -0.1 -4.1 0.6 -7.2 0.7 -3.1 3.6 -17.3 6.6 -31.6 7.9 -38 12.1 -49.7 16.9 -47.9 0.9 0.3 2.7 4 4 8.3 4.5 14.3 14.6 67.1 14.6 76.4 0 6.3 -2.9 4.4 -8 -5.3 -4.7 -8.7 -15.2 -21 -18.1 -21 -2.1 0 -3.6 3.4 -5.9 13.7 -2.5 10.5 -5.3 16.3 -8.1 16.3 -1.1 0 -2.3 -0.8 -2.6 -1.7z m23.6 -48.8 c-1 -5.4 -1.4 -6.3 -2.1 -4.5 -0.8 2.3 -0.6 4.2 1.4 9.3 1.7 4.4 2 2.5 0.7 -4.8z"/>
  <path d="M590.1 390.4 c-3.8 -3.2 -4 -6.1 -0.5 -7.4 1.4 -0.6 6.3 -1 11 -1 10 0 11.9 -1.2 13 -8.5 1.2 -8.3 -1.4 -14 -13.2 -28.8 -7.8 -9.9 -9.9 -15.8 -8.9 -25 0.8 -6.9 2.6 -11.2 5.4 -12.6 1 -0.6 4.7 -1.3 8.3 -1.7 7.8 -0.8 9.8 0.6 9.8 6.7 0 4.6 -1 4.9 -6.2 1.3 -3.6 -2.5 -3.9 -2.6 -6.3 -1 -4 2.6 -5.8 6.1 -5.1 9.9 0.3 1.8 3.7 8 7.4 13.8 14.1 21.6 18.2 30.1 18.2 37.1 0 10.8 -10.7 19.8 -23.7 19.8 -5.2 0 -6.6 -0.4 -9.2 -2.6z"/>
  <path d="M179.7 296.3 c-1.6 -1.5 -0.5 -5.5 2.6 -8.9 7.2 -8.3 15.7 -12.1 15.7 -7.1 0 6.8 -14.7 19.6 -18.3 16z"/>
  <path d="M416.2 283.8 c-0.7 -0.7 -1.2 -2.1 -1.1 -3.2 0 -1.5 0.2 -1.7 0.6 -0.6 0.3 0.8 1.2 2.3 2.1 3.3 1.7 1.9 0.3 2.4 -1.6 0.5z"/>
  <path d="M327.3 272.7 c-0.4 -0.7 -1.1 -11.5 -1.5 -24.2 -1.3 -40.3 -2.5 -46.2 -14.4 -69.3 -7 -13.7 -8.6 -18.2 -6.4 -18.2 1.8 0 9.8 11.3 14.7 20.6 2.6 5.2 5.1 9.4 5.4 9.4 0.3 0 1.6 -5.3 2.9 -11.7 5 -25.2 9.7 -35.9 22.1 -50.1 4.4 -5.1 8.2 -9.2 8.5 -9.2 0.6 0 0.5 0.2 -5.5 9.5 -10.7 16.8 -17.8 36.2 -20.1 55 -0.9 7.4 -0.8 11.7 0.6 23.8 0.9 8.1 2 14.7 2.4 14.7 0.7 0 4.3 -3.6 18.4 -18.5 l4.8 -5 -2.7 4.5 c-9.3 16 -12.5 25.3 -12.5 37 0 7.4 1 10.6 4.2 12.8 2.8 2 2.2 3.5 -3.5 8.9 -8.2 7.7 -16 12.2 -17.4 10z"/>
  <path d="M405.5 268.9 c-5.8 -6 -11.4 -9.9 -14.4 -9.9 -1.5 0 -4.2 1.3 -6.1 2.9 -4.8 3.9 -8.6 5.7 -15.5 7.4 -11.9 3 -21.7 2.9 -24.8 -0.2 -1.7 -1.7 0.5 -3.4 11.3 -8.9 14.1 -7.1 33.2 -18.7 38.3 -23.2 5.3 -4.7 7 -8.6 10.3 -23.5 3.6 -15.8 7.2 -26.3 10.5 -29.9 3.1 -3.4 3.8 -2.2 1.4 2.4 -2.9 5.6 -5.6 20.1 -6.4 34.3 -0.5 7.8 -0.8 14.3 -0.7 14.4 0.1 0.1 6.7 0.5 14.7 0.9 19.7 0.9 19.4 1.1 41 -20.3 9.3 -9.2 16.9 -16.3 16.9 -15.9 0 0.4 -3.3 5.1 -7.4 10.5 -4.1 5.3 -10.2 14 -13.6 19.2 l-6.2 9.4 2.9 1.2 c1.5 0.7 3.9 1.2 5.3 1.3 1.4 0 3.1 0.4 3.9 0.9 2 1.3 -4 1.9 -24.4 2.5 -17.3 0.6 -27.8 2.1 -35 5.1 -2.2 1 -5 2.1 -6.3 2.6 -2.1 0.8 -1.9 1.2 4 6.2 7.5 6.4 10.6 11 8.8 13.2 -2 2.5 -4.4 1.7 -8.5 -2.6z"/>
  <path d="M281 269 c-11.9 -5.3 -19.1 -6.3 -39.4 -5.7 -15.9 0.5 -25.9 1.7 -33.9 4.3 -1.4 0.4 -1.7 0.3 -1.2 -0.6 1.1 -1.8 14.3 -7.7 21.1 -9.5 3.1 -0.8 5.9 -1.7 6.2 -1.9 1.2 -1.3 -14.3 -26.8 -27.1 -44.8 -12.2 -17.1 -13.1 -19.1 -11.8 -24.1 0.6 -2.3 0.9 -9.1 0.8 -15.2 -0.1 -8.8 0.1 -11.6 1.5 -14.2 2.6 -4.7 5.6 -5.2 8.9 -1.5 6.7 7.5 6.5 21.5 -0.5 30.6 -1.4 1.9 -2.6 4.7 -2.6 6.3 0 3.4 6.1 14.4 15.2 27.4 17.6 25.1 29.3 34.2 48.2 37.4 12.5 2.1 14 2 13.3 -0.7 -0.3 -1.3 -1.5 -4.7 -2.8 -7.5 -2.7 -6.3 -1.8 -8.1 1.9 -3.6 3.5 4.1 12.2 20 12.9 23.6 0.5 2.3 0.2 2.7 -1.8 2.6 -1.3 0 -5.3 -1.3 -8.9 -2.9z"/>
  <path d="M163.8 267.3 c-6.1 -2 -13.3 -8 -11.8 -9.8 0.6 -0.7 3.7 -1.8 7 -2.5 12.8 -2.7 29.5 1.2 29.5 7 0 2 -1 3 -4.5 4.8 -5.3 2.6 -13.2 2.9 -20.2 0.5z"/>
  <path d="M533 265.9 c-7.5 -3 -13 -7.1 -13 -9.6 0 -5.2 15.3 -5.8 24.8 -0.9 7.9 4 9.5 9.4 3.5 11.7 -5.4 2 -7.9 1.8 -15.3 -1.2z"/>
  <path d="M420.5 264 c-1.2 -0.4 -2.7 -1.6 -3.5 -2.5 -1.3 -1.5 -1.2 -1.9 0.5 -3.1 2.3 -1.7 11.4 -1.8 15 -0.2 3 1.3 3.3 4.3 0.6 5.8 -2.3 1.2 -9.7 1.2 -12.6 0z"/>
  <path d="M304.2 250.5 c-0.7 -1.4 -1.2 -4.8 -1.2 -7.5 0 -6 1.7 -10 4.2 -10 2.4 0 3.8 3.7 3.8 10 0 6.3 -1.4 10 -3.8 10 -1 0 -2.4 -1.1 -3 -2.5z"/>
  <path d="M181 242 c-6.5 -3.6 -10.2 -6.9 -9.3 -8.3 0.8 -1.3 11.9 -0.2 16.3 1.7 5 2 7.7 5.2 6.4 7.4 -1.8 2.9 -7.3 2.5 -13.4 -0.8z"/>
  <path d="M496.4 239.9 c-2 -3.3 12.3 -12.9 19.3 -12.9 2.8 0 3.3 0.4 3.3 2.3 0 2.6 -4.8 7.6 -9.7 10.1 -3.6 1.8 -11.8 2.2 -12.9 0.5z"/>
  <path d="M156.2 238.8 c-2.9 -2.9 0.2 -16.8 3.7 -16.8 3.6 0 4.1 12.1 0.6 16 -2.1 2.3 -2.7 2.4 -4.3 0.8z"/>
  <path d="M205.9 236.7 c-3.6 -1.8 -8.9 -9.4 -8.9 -12.8 0 -4.5 3.4 -3.8 9.1 2 3.7 3.6 4.9 5.6 4.9 7.9 0 3.5 -1.8 4.5 -5.1 2.9z"/>
  <path d="M124.4 231.9 c-1 -1.7 2.8 -6.1 7.6 -8.6 4.7 -2.5 16.3 -3.3 17.6 -1.2 1 1.7 -2.8 6.1 -7.6 8.6 -4.7 2.5 -16.3 3.3 -17.6 1.2z"/>
  <path d="M472 231.5 c0 -0.8 2.8 -3.8 6.2 -6.6 9.5 -7.9 16.8 -10.5 16.8 -6 0 4.8 -12.6 14.1 -19.2 14.1 -2.7 0 -3.8 -0.4 -3.8 -1.5z"/>
  <path d="M261.1 229.4 c-5.1 -4.3 -7.3 -10.1 -5.5 -14.8 1.7 -4.5 8.2 0.9 10.3 8.7 2.3 8.1 0.4 10.5 -4.8 6.1z"/>
  <path d="M279 229.4 c0 -3.7 8.9 -12.7 12.2 -12.2 1.2 0.2 2.4 1 2.6 1.9 0.7 3.7 -8.5 12.9 -12.9 12.9 -1.4 0 -1.9 -0.7 -1.9 -2.6z"/>
  <path d="M538.6 228.7 c-4.1 -2.3 -8.2 -7.9 -7.1 -9.7 0.9 -1.5 4.3 -1.2 7.3 0.6 3.1 1.8 8.2 8.1 8.2 10.1 0 2 -4 1.5 -8.4 -1z"/>
  <path d="M229.6 226 c-4.3 -5.2 -3.3 -17 1.5 -17 1.2 0 2.3 1 3 2.7 1.3 3.4 0.8 16.5 -0.7 17 -0.6 0.2 -2.3 -1 -3.8 -2.7z"/>
  <path d="M150 215.1 c-4.6 -2.5 -7.4 -5.6 -6.6 -7.6 2.2 -5.9 16.2 -0.3 15.4 6.3 -0.4 3.4 -3.8 3.9 -8.8 1.3z"/>
  <path d="M548.4 215.6 c-4.1 -1.8 -4.8 -3.1 -2.8 -5 1.9 -2 14.7 -2.2 18.4 -0.3 3.5 1.8 3.7 4.5 0.5 5.7 -3.7 1.4 -12.4 1.2 -16.1 -0.4z"/>
  <path d="M431.7 215.3 c-1.9 -1.8 -0.1 -5.1 5.8 -10.9 5.9 -5.8 10.7 -8.6 12.1 -7.1 1.1 1.1 -1.8 7.9 -4.9 11.3 -1.6 2 -4.7 4.4 -6.8 5.5 -4.1 2 -5.2 2.3 -6.2 1.2z"/>
  <path d="M275.4 212.4 c-1.9 -7.3 2.4 -18.3 8.2 -21.5 2.4 -1.2 2.8 -1.2 4.5 1 2.3 2.8 2.4 5.2 0.4 11.8 -2.8 9.4 -11.5 15.2 -13.1 8.7z"/>
  <path d="M169.2 211.8 c-1.5 -0.7 -2.2 -1.9 -2 -3.2 1.1 -7.5 25.9 -9 29.7 -1.7 1 1.7 0.7 2.3 -1.6 3.8 -3.3 2.2 -22.3 3 -26.1 1.1z"/>
  <path d="M504.4 211.6 c-3.6 -1.6 -10.4 -9.2 -10.4 -11.7 0 -3.1 3.7 -3.3 9.3 -0.5 6 2.9 16 11.3 15.1 12.7 -0.8 1.4 -10.5 1 -14 -0.5z"/>
  <path d="M259.7 207.2 c-3.4 -3.8 -6.1 -15.2 -3.8 -16.6 1.5 -0.9 7.3 3.7 9.3 7.4 1.1 2 1.7 5 1.6 7 -0.3 2.9 -0.7 3.5 -2.9 3.8 -1.5 0.2 -3.2 -0.5 -4.2 -1.6z"/>
  <path d="M368.5 208 c-6.5 -2.6 -5 -7 2.4 -7 4.4 0 11.1 2.9 11.1 4.8 0 2.9 -8.4 4.3 -13.5 2.2z"/>
  <path d="M531.7 207.3 c-1.7 -1.6 -0.4 -4.6 3.7 -8.9 4.6 -4.8 6.9 -5.3 7.4 -1.7 0.2 1.4 -1.2 3.7 -4.1 6.7 -4.3 4.5 -5.7 5.3 -7 3.9z"/>
  <path d="M460.2 203.3 c-1.1 -2.8 -0.7 -14.4 0.7 -18.4 1.5 -4.5 4.4 -7.4 6.7 -6.5 1.4 0.6 1.6 2 1.2 11.4 -0.2 5.9 -1 11.7 -1.7 13 -1.4 2.7 -5.8 3 -6.9 0.5z"/>
  <path d="M148.2 191.5 c-1.8 -0.8 -3.7 -2.6 -4.2 -4.1 -3.1 -8.1 6.1 -11.4 22.7 -8 3.7 0.8 8.5 1.7 10.6 2 6.9 1.2 3.3 7.4 -5.8 10.2 -6.1 1.8 -19 1.8 -23.3 -0.1z"/>
  <path d="M347.3 189.8 c-2.1 -2.4 -4.3 -7.9 -4.3 -10.9 0 -2.6 5.1 -2.5 7.4 0 2.3 2.5 3.3 9.6 1.6 11.6 -1.7 2 -2.3 1.9 -4.7 -0.7z"/>
  <path d="M267.8 188.3 c-3.3 -3.6 -4.8 -6.6 -4.8 -9.7 0 -3.8 1 -5.6 3.2 -5.6 3.3 0 5.5 1.8 7.2 6 3.9 9.7 0.3 15.6 -5.6 9.3z"/>
  <path d="M516.6 189.5 c-4.1 -1.4 -5.6 -2.9 -5.6 -5.7 0 -2.4 4.4 -5.5 9.1 -6.3 5.8 -1 16.5 1.3 19.7 4.1 l2.7 2.4 -2.3 2 c-2.9 2.4 -11.3 5 -16.1 5 -2 -0.1 -5.4 -0.7 -7.5 -1.5z"/>
  <path d="M372.2 187.8 c-2.1 -2.1 -1.4 -7.4 1.3 -10.6 2.9 -3.5 10.1 -7.3 12.1 -6.5 1.8 0.7 1.8 5.6 0 9.2 -1.9 3.6 -8.2 9.1 -10.4 9.1 -1 0 -2.3 -0.5 -3 -1.2z"/>
  <path d="M424.2 188.1 c-2.7 -1.6 -0.9 -5.5 3.7 -8 5.4 -3 18.1 -4.3 18.1 -1.9 0 2.6 -4.2 7 -8.4 8.9 -4.3 1.9 -11.2 2.5 -13.4 1z"/>
  <path d="M483 178.6 c0 -13.3 6.6 -25.6 13.8 -25.6 11.6 0 6.3 16.6 -9.2 29.4 l-4.6 3.7 0 -7.5z"/>
  <path d="M239 181.6 c0 -3 1.4 -4.7 5.1 -6.6 7.1 -3.7 12.1 -2 7.8 2.7 -4.5 4.7 -12.9 7.3 -12.9 3.9z"/>
  <path d="M360 178.1 c-1.5 -3 -1.2 -12.4 0.5 -14.7 1.5 -1.9 1.6 -1.8 4 0.9 3.2 3.6 3.4 9.3 0.4 13.1 -2.4 3.1 -3.5 3.3 -4.9 0.7z"/>
  <path d="M178 170.5 c-2.2 -2.3 -2.5 -3.7 -2.8 -12.6 -0.5 -10.7 0.8 -15.9 3.8 -15.9 3.8 0 6.5 5.9 7.6 16.8 1.2 12.5 -2.8 17.9 -8.6 11.7z"/>
  <path d="M280.8 170.3 c-5.9 -3.3 -6.6 -4.9 -2.8 -6.8 6 -3.1 16 -1 16 3.4 0 2.3 -4.1 6.1 -6.6 6.1 -1 0 -4 -1.2 -6.6 -2.7z"/>
  <path d="M408 171.1 c-1.6 -3.1 -1.2 -10.7 0.6 -12.2 3.9 -3.2 8.9 9.2 5.2 12.9 -1.8 1.8 -4.6 1.4 -5.8 -0.7z"/>
  <path d="M150.2 166 c-7.1 -5.1 -8.1 -9 -2.4 -9 5.7 0 14.2 6.6 14.2 10.9 0 2.4 -7.7 1.1 -11.8 -1.9z"/>
  <path d="M235.6 167.4 c-2.4 -6.3 5.3 -18.4 11.8 -18.4 1.7 0 1.8 0.5 1.3 4.5 -1.1 7.9 -6.1 15.5 -10.3 15.5 -1.2 0 -2.5 -0.7 -2.8 -1.6z"/>
  <path d="M428.7 167.2 c-2.1 -2.3 -2.2 -7.4 -0.3 -11 2 -3.9 11 -12 15.1 -13.8 4 -1.6 7.5 -0.5 7.5 2.4 0 4.9 -8.1 17.4 -14.2 21.9 -3.8 2.8 -5.9 2.9 -8.1 0.5z"/>
  <path d="M507.7 168.3 c-1.6 -1.5 -0.5 -5.5 2.5 -8.8 6.2 -7.1 14.5 -11.4 16.3 -8.4 1.2 1.9 -0.5 7.8 -3.2 10.9 -4.2 5 -13.3 8.7 -15.6 6.3z"/>
  <path d="M533.8 167.9 c-2.6 -1.5 -2.2 -2.7 1.5 -4.9 3.5 -2.2 10.6 -2.7 13.8 -1 2.7 1.5 2.4 4.5 -0.6 5.8 -3.2 1.5 -12.4 1.5 -14.7 0.1z"/>
  <path d="M305 153 c-3.2 -7.7 2.1 -25.3 8.4 -27.5 2.3 -0.8 3 -0.6 4.2 1 3.4 4.6 0.4 18.4 -5.7 25.8 -3.7 4.5 -5.3 4.7 -6.9 0.7z"/>
  <path d="M270.4 150.1 c-5.7 -3.3 -14.1 -12.1 -15 -15.7 -1.8 -7.1 10.1 -7.3 19 -0.3 3.9 3 8.6 10.7 8.6 13.9 0 5.7 -4.8 6.5 -12.6 2.1z"/>
  <path d="M358 150.5 c-3.2 -3.4 -1.4 -5.5 5 -5.5 6.4 0 8.2 2.1 5 5.5 -1.4 1.5 -3.5 2.5 -5 2.5 -1.5 0 -3.6 -1 -5 -2.5z"/>
  <path d="M476.3 147.5 c-3.6 -1.5 -4.5 -4.8 -1.7 -5.9 2.9 -1.1 11.4 -0.6 14.9 0.8 3.7 1.6 4.8 4.9 1.9 6 -2.8 1.1 -11.8 0.6 -15.1 -0.9z"/>
  <path d="M204.3 143.5 c-3.6 -1.5 -4.5 -4.8 -1.7 -5.9 2.9 -1.1 11.4 -0.6 14.9 0.8 3.7 1.6 4.8 4.9 1.9 6 -2.8 1.1 -11.8 0.6 -15.1 -0.9z"/>
  <path d="M288.9 135.3 c-2.2 -2.6 -2.5 -19.2 -0.5 -23.2 2 -3.8 4.7 -4 7.5 -0.6 3 3.9 3.4 7.7 1.6 14.7 -2.5 9.9 -5.4 13 -8.6 9.1z"/>
  <path d="M328.9 132.5 c-1.3 -3 -1.8 -5.6 -1.4 -7.4 0.7 -3.3 4.2 -7.4 5.8 -6.8 1.3 0.4 2.2 12.6 1.2 16.4 -0.9 3.7 -3.4 2.7 -5.6 -2.2z"/>
  <path d="M373.4 134.6 c-5.1 -2.4 -9.8 -7 -9.1 -9 0.8 -2.5 7.3 -4.6 14.2 -4.6 8.6 0 13.7 1.3 17.2 4.6 l2.8 2.4 -3 2.5 c-3.1 2.6 -12.3 6.5 -15.3 6.5 -0.9 0 -4 -1.1 -6.8 -2.4z"/>
  <path d="M421.3 135.9 c-1.9 -1.9 -1.6 -2.7 2 -4.9 4 -2.5 11.9 -2.7 13.7 -0.4 1.1 1.3 1 1.9 -0.8 3.6 -2.6 2.6 -12.9 3.8 -14.9 1.7z"/>
  <path d="M231.3 134.3 c-1.1 -2.7 8 -17.3 10.8 -17.3 1.8 0 1 10.4 -1.1 13.8 -2.8 4.6 -8.5 6.7 -9.7 3.5z"/>
  <path d="M454 130.5 c-2.1 -2.2 -2.5 -3.8 -2.8 -10.1 -0.3 -4.6 0 -7.4 0.6 -7.4 2.7 0 11.5 13.7 11 17.2 -0.5 3.5 -5.6 3.7 -8.8 0.3z"/>
  <path d="M473.7 128.3 c-2.4 -2.3 1.3 -11.4 6.4 -15.7 4 -3.4 10.2 -6.6 12.9 -6.6 5.1 0 -0.1 11.4 -8.8 19 -4.2 3.7 -8.7 5.2 -10.5 3.3z"/>
  <path d="M214.8 122.3 c-6.9 -7.4 -9.7 -21.3 -4.3 -21.3 3.9 0 14.5 13.1 14.5 18 0 3.1 -2.7 6 -5.6 6 -1.1 0 -3.2 -1.2 -4.6 -2.7z"/>
  <path d="M269.9 118.4 c-2 -2.2 -2.4 -3.8 -2.8 -10.6 -0.4 -9.5 0.5 -11 4.8 -7.8 5.8 4 8.9 13.8 6.1 19.1 -1.5 2.7 -5.2 2.4 -8.1 -0.7z"/>
  <path d="M423.7 120.3 c-0.4 -0.3 -0.7 -1.6 -0.7 -2.8 0 -4.4 16.7 -17.2 19.2 -14.7 1.7 1.7 -0.2 5.2 -6.7 11.8 -5.9 6 -9.7 7.9 -11.8 5.7z"/>
  <path d="M346.8 115.3 c-2.7 -3.1 -5.5 -9.6 -6.2 -14.4 -0.8 -5.4 0.8 -16.9 3 -21.1 6 -11.5 15.9 15.1 10.9 29.3 -1.5 4.2 -4.1 7.9 -5.5 7.9 -0.4 0 -1.4 -0.8 -2.2 -1.7z"/>
  <path d="M464 115.1 c-0.5 -1.1 -1 -3.8 -1 -6.1 0 -5.1 1.5 -8 4 -8 2.5 0 4 2.9 4 8 0 5.1 -1.5 8 -4 8 -1.1 0 -2.4 -0.9 -3 -1.9z"/>
  <path d="M376.3 108.3 c-5 -2 5.8 -14.7 17.1 -20.3 10.7 -5.3 16.2 -3 12.1 4.9 -2.8 5.6 -7.9 10.4 -14 13.3 -5.6 2.6 -11.9 3.5 -15.2 2.1z"/>
  <path d="M316 104 c0 -0.5 0.9 -1.4 2.1 -2 2.4 -1.3 4.9 -6.7 4.9 -10.7 0 -3.4 3.4 -9.3 5.4 -9.3 4.3 0 3 12.5 -1.8 17.8 -3.6 4 -10.6 6.8 -10.6 4.2z"/>
  <path d="M365.6 93.8 c-3.5 -5 0 -19.8 4.8 -20.7 6.1 -1.1 6 14.4 -0.1 21.1 -2.1 2.3 -2.9 2.3 -4.7 -0.4z"/>
  <path d="M310.8 86.9 c-4.1 -2.3 -5.3 -19.9 -1.3 -19.9 1.5 0 7.5 12.8 7.5 16.1 0 4.2 -2.7 5.9 -6.2 3.8z"/>
 </g>
 <g fill="#ffffff">
  <path d="M357.9 638.3 l-3.4 -3.8 3.8 3.4 c3.4 3.3 4.2 4.1 3.4 4.1 -0.2 0 -1.9 -1.7 -3.8 -3.7z"/>
  <path d="M343.3 584 c0 -4.7 0.2 -6.6 0.4 -4.2 0.2 2.3 0.2 6.1 0 8.5 -0.2 2.3 -0.4 0.4 -0.4 -4.3z"/>
  <path d="M351.3 584.5 c0 -3.8 0.2 -5.3 0.4 -3.2 0.2 2 0.2 5.2 0 7 -0.2 1.7 -0.4 0.1 -0.4 -3.8z"/>
  <path d="M239 588.3 c0 -1.3 0.5 -2.3 1 -2.3 1.3 0 1.3 1.1 0 3 -0.8 1.2 -1 1.1 -1 -0.7z"/>
  <path d="M321.9 576.4 c1.9 -0.3 3.1 -1.3 3.4 -2.5 0.4 -1.5 0.4 -1.4 0.3 0.3 -0.1 1.8 -0.8 2.4 -3.3 2.6 -3.1 0.2 -3.2 0.2 -0.4 -0.4z"/>
  <path d="M352.3 563.5 c0 -2.2 0.2 -3 0.4 -1.7 0.2 1.2 0.2 3 0 4 -0.3 0.9 -0.5 -0.1 -0.4 -2.3z"/>
  <path d="M338 560.5 c-1.3 -1.4 -2.2 -2.7 -1.9 -2.9 0.2 -0.2 1.4 1 2.7 2.5 2.9 3.6 2.4 3.8 -0.8 0.4z"/>
  <path d="M303.3 550.5 c0 -3.3 0.2 -4.5 0.4 -2.7 0.2 1.8 0.2 4.5 0 6 -0.2 1.5 -0.4 0 -0.4 -3.3z"/>
  <path d="M233.5 544 c2.1 -2.2 4.1 -4 4.4 -4 0.3 0 -1.3 1.8 -3.4 4 -2.1 2.2 -4.1 4 -4.4 4 -0.3 0 1.3 -1.8 3.4 -4z"/>
  <path d="M275.5 527 c3.3 -3.3 6.2 -6 6.4 -6 0.3 0 -2.1 2.7 -5.4 6 -3.3 3.3 -6.2 6 -6.4 6 -0.3 0 2.1 -2.7 5.4 -6z"/>
  <path d="M341.2 528 c0 -1.9 0.2 -2.7 0.5 -1.7 0.2 0.9 0.2 2.5 0 3.5 -0.3 0.9 -0.5 0.1 -0.5 -1.8z"/>
  <path d="M538.9 521.3 l-3.4 -3.8 3.8 3.4 c2 1.9 3.7 3.6 3.7 3.8 0 0.8 -0.8 0 -4.1 -3.4z"/>
  <path d="M545.9 520.3 l-3.4 -3.8 3.8 3.4 c2 1.9 3.7 3.6 3.7 3.8 0 0.8 -0.8 0 -4.1 -3.4z"/>
  <path d="M387.3 506.5 c0 -2.7 0.2 -3.8 0.4 -2.2 0.2 1.5 0.2 3.7 0 5 -0.2 1.2 -0.4 0 -0.4 -2.8z"/>
  <path d="M216 502.5 c3 -3 5.7 -5.5 5.9 -5.5 0.3 0 -1.9 2.5 -4.9 5.5 -3 3 -5.7 5.5 -5.9 5.5 -0.3 0 1.9 -2.5 4.9 -5.5z"/>
  <path d="M497.9 502.3 c-1.3 -1.7 -1.3 -1.7 0.4 -0.4 1.6 1.3 2 1.3 2.9 0 0.8 -1.2 0.9 -1.2 0.6 0 -0.6 2.2 -2.3 2.4 -3.9 0.4z"/>
  <path d="M273.4 486.5 c0 -7.7 0.2 -10.7 0.3 -6.7 0.2 4 0.2 10.3 0 14 -0.2 3.7 -0.3 0.4 -0.3 -7.3z"/>
  <path d="M241.3 489 c0 -4.1 0.2 -5.8 0.4 -3.7 0.2 2 0.2 5.4 0 7.5 -0.2 2 -0.4 0.3 -0.4 -3.8z"/>
  <path d="M397.8 494.3 c1.2 -0.2 3 -0.2 4 0 0.9 0.3 -0.1 0.5 -2.3 0.4 -2.2 0 -3 -0.2 -1.7 -0.4z"/>
  <path d="M538.8 494.3 c1.2 -0.2 3 -0.2 4 0 0.9 0.3 -0.1 0.5 -2.3 0.4 -2.2 0 -3 -0.2 -1.7 -0.4z"/>
  <path d="M455.9 479.3 c-1.7 -2 -1.8 -2.3 -0.3 -1 1.1 0.9 2.4 1.4 2.9 1 0.4 -0.5 0.5 -0.3 0.2 0.4 -0.4 0.6 -0.1 1.4 0.5 1.6 0.7 0.3 0.8 0.6 0.2 0.6 -0.6 0.1 -2.1 -1.1 -3.5 -2.6z"/>
  <path d="M177.2 475 c0 -1.9 0.2 -2.7 0.5 -1.7 0.2 0.9 0.2 2.5 0 3.5 -0.3 0.9 -0.5 0.1 -0.5 -1.8z"/>
  <path d="M486.9 450.3 l-3.4 -3.8 3.8 3.4 c2 1.9 3.7 3.6 3.7 3.8 0 0.8 -0.8 0 -4.1 -3.4z"/>
  <path d="M213.3 437.3 c5.3 -0.2 14.1 -0.2 19.5 0 5.3 0.1 0.9 0.3 -9.8 0.3 -10.7 0 -15.1 -0.2 -9.7 -0.3z"/>
  <path d="M160.3 390 c0 -2.5 0.2 -3.5 0.4 -2.2 0.2 1.2 0.2 3.2 0 4.5 -0.2 1.2 -0.4 0.2 -0.4 -2.3z"/>
  <path d="M105.9 389.8 c0.4 -2.8 0.6 -2.9 0.9 -0.9 0.2 1.3 0 2.7 -0.5 3.2 -0.6 0.6 -0.7 -0.3 -0.4 -2.3z"/>
  <path d="M181.7 392.4 c-0.4 -0.4 -0.7 -1.2 -0.7 -1.8 0 -0.6 0.5 -0.4 1 0.4 0.9 1.3 1.1 1.3 2.1 0 0.9 -1.2 1 -1.2 0.7 -0.1 -0.5 1.7 -2.1 2.5 -3.1 1.5z"/>
  <path d="M453.7 392.4 c-0.4 -0.4 -0.7 -1.2 -0.7 -1.8 0 -0.6 0.5 -0.4 1 0.4 0.9 1.3 1.1 1.3 2.1 0 0.9 -1.2 1 -1.2 0.7 -0.1 -0.5 1.7 -2.1 2.5 -3.1 1.5z"/>
  <path d="M574.2 386 c0 -1.9 0.2 -2.7 0.5 -1.7 0.2 0.9 0.2 2.5 0 3.5 -0.3 0.9 -0.5 0.1 -0.5 -1.8z"/>
  <path d="M291 385.7 c0 -0.2 1.5 -1.6 3.3 -3.3 l3.2 -2.9 -2.9 3.3 c-2.8 3 -3.6 3.7 -3.6 2.9z"/>
  <path d="M275.3 383.8 c-1.7 -2.7 0.2 -68.6 2 -70.4 0.9 -0.9 6.5 2.5 9.9 6 11.3 11.7 11.4 48.6 0.1 59.2 -3.4 3.2 -8.4 6.4 -10 6.4 -0.6 0 -1.5 -0.6 -2 -1.2z"/>
  <path d="M267.3 379.5 c0 -2.2 0.2 -3 0.4 -1.7 0.2 1.2 0.2 3 0 4 -0.3 0.9 -0.5 -0.1 -0.4 -2.3z"/>
  <path d="M594.8 382.3 c2.3 -0.2 6.1 -0.2 8.5 0 2.3 0.2 0.4 0.4 -4.3 0.4 -4.7 0 -6.6 -0.2 -4.2 -0.4z"/>
  <path d="M127.2 379 c0 -1.9 0.2 -2.7 0.5 -1.7 0.2 0.9 0.2 2.5 0 3.5 -0.3 0.9 -0.5 0.1 -0.5 -1.8z"/>
  <path d="M518.3 377 c0 -2.5 0.2 -3.5 0.4 -2.2 0.2 1.2 0.2 3.2 0 4.5 -0.2 1.2 -0.4 0.2 -0.4 -2.3z"/>
  <path d="M386.3 376.5 c0 -2.2 0.2 -3 0.4 -1.7 0.2 1.2 0.2 3 0 4 -0.3 0.9 -0.5 -0.1 -0.4 -2.3z"/>
  <path d="M486.3 376.5 c0 -2.2 0.2 -3 0.4 -1.7 0.2 1.2 0.2 3 0 4 -0.3 0.9 -0.5 -0.1 -0.4 -2.3z"/>
  <path d="M67.3 373 c0 -3 0.2 -4.3 0.4 -2.7 0.2 1.5 0.2 3.9 0 5.5 -0.2 1.5 -0.4 0.2 -0.4 -2.8z"/>
  <path d="M179.3 373.5 c0 -2.7 0.2 -3.8 0.4 -2.2 0.2 1.5 0.2 3.7 0 5 -0.2 1.2 -0.4 0 -0.4 -2.8z"/>
  <path d="M186.3 373.5 c0 -2.7 0.2 -3.8 0.4 -2.2 0.2 1.5 0.2 3.7 0 5 -0.2 1.2 -0.4 0 -0.4 -2.8z"/>
  <path d="M327.3 374.5 c0 -2.2 0.2 -3 0.4 -1.7 0.2 1.2 0.2 3 0 4 -0.3 0.9 -0.5 -0.1 -0.4 -2.3z"/>
  <path d="M379.3 373.5 c0 -2.7 0.2 -3.8 0.4 -2.2 0.2 1.5 0.2 3.7 0 5 -0.2 1.2 -0.4 0 -0.4 -2.8z"/>
  <path d="M451.3 373.5 c0 -2.7 0.2 -3.8 0.4 -2.2 0.2 1.5 0.2 3.7 0 5 -0.2 1.2 -0.4 0 -0.4 -2.8z"/>
  <path d="M458.3 373.5 c0 -2.7 0.2 -3.8 0.4 -2.2 0.2 1.5 0.2 3.7 0 5 -0.2 1.2 -0.4 0 -0.4 -2.8z"/>
  <path d="M479.3 373.5 c0 -2.7 0.2 -3.8 0.4 -2.2 0.2 1.5 0.2 3.7 0 5 -0.2 1.2 -0.4 0 -0.4 -2.8z"/>
  <path d="M430.3 372.5 c0 -2.7 0.2 -3.8 0.4 -2.2 0.2 1.5 0.2 3.7 0 5 -0.2 1.2 -0.4 0 -0.4 -2.8z"/>
  <path d="M622.3 373 c0 -2.5 0.2 -3.5 0.4 -2.2 0.2 1.2 0.2 3.2 0 4.5 -0.2 1.2 -0.4 0.2 -0.4 -2.3z"/>
  <path d="M422.3 365.5 c0 -2.7 0.2 -3.8 0.4 -2.2 0.2 1.5 0.2 3.7 0 5 -0.2 1.2 -0.4 0 -0.4 -2.8z"/>
  <path d="M510.3 359 c0 -4.1 0.2 -5.8 0.4 -3.7 0.2 2 0.2 5.4 0 7.5 -0.2 2 -0.4 0.3 -0.4 -3.8z"/>
  <path d="M556.1 356 c-5.6 -7.1 -6.7 -11.4 -5.2 -21.7 1.2 -8.9 1.9 -11.3 3 -11.3 2.1 0 9 35.5 7.3 37.2 -0.7 0.7 -2.4 -0.8 -5.1 -4.2z"/>
  <path d="M141.1 357.6 c-5.1 -5.4 -7.7 -18.9 -5 -26.5 3.1 -8.9 8.4 2 9.6 19.7 0.5 7.7 0.4 9.2 -0.9 9.2 -0.8 0 -2.4 -1.1 -3.7 -2.4z"/>
  <path d="M302.3 348.5 c0 -2.7 0.2 -3.8 0.4 -2.2 0.2 1.5 0.2 3.7 0 5 -0.2 1.2 -0.4 0 -0.4 -2.8z"/>
  <path d="M75 335.7 c0 -15 0.8 -20.3 3.3 -21.9 3.3 -2.1 13.9 -0.4 15.9 2.6 2.5 3.7 -2.7 14.7 -12.7 27 l-6.5 7.9 0 -15.6z"/>
  <path d="M327.3 345.5 c0 -2.2 0.2 -3 0.4 -1.7 0.2 1.2 0.2 3 0 4 -0.3 0.9 -0.5 -0.1 -0.4 -2.3z"/>
  <path d="M421.3 337.5 c0 -4.4 0.2 -6.1 0.4 -3.7 0.2 2.3 0.2 5.9 0 8 -0.2 2 -0.4 0.1 -0.4 -4.3z"/>
  <path d="M487.2 330.6 l-0.2 -11.9 2.5 2.3 c2.9 2.8 3.4 4.1 0.5 1.5 -1.9 -1.7 -1.9 -1.6 -2.3 9.1 l-0.3 10.9 -0.2 -11.9z"/>
  <path d="M430.3 325.5 c0 -2.7 0.2 -3.8 0.4 -2.2 0.2 1.5 0.2 3.7 0 5 -0.2 1.2 -0.4 0 -0.4 -2.8z"/>
  <path d="M179.3 324.5 c0 -2.7 0.2 -3.8 0.4 -2.2 0.2 1.5 0.2 3.7 0 5 -0.2 1.2 -0.4 0 -0.4 -2.8z"/>
  <path d="M186.3 324.5 c0 -2.7 0.2 -3.8 0.4 -2.2 0.2 1.5 0.2 3.7 0 5 -0.2 1.2 -0.4 0 -0.4 -2.8z"/>
  <path d="M451.3 324.5 c0 -2.7 0.2 -3.8 0.4 -2.2 0.2 1.5 0.2 3.7 0 5 -0.2 1.2 -0.4 0 -0.4 -2.8z"/>
  <path d="M458.3 324.5 c0 -2.7 0.2 -3.8 0.4 -2.2 0.2 1.5 0.2 3.7 0 5 -0.2 1.2 -0.4 0 -0.4 -2.8z"/>
  <path d="M518.3 324.5 c0 -2.7 0.2 -3.8 0.4 -2.2 0.2 1.5 0.2 3.7 0 5 -0.2 1.2 -0.4 0 -0.4 -2.8z"/>
  <path d="M379.3 323 c0 -3 0.2 -4.3 0.4 -2.7 0.2 1.5 0.2 3.9 0 5.5 -0.2 1.5 -0.4 0.2 -0.4 -2.8z"/>
  <path d="M591.3 324 c0 -2.5 0.2 -3.5 0.4 -2.2 0.2 1.2 0.2 3.2 0 4.5 -0.2 1.2 -0.4 0.2 -0.4 -2.3z"/>
  <path d="M479.3 322 c0 -3 0.2 -4.3 0.4 -2.7 0.2 1.5 0.2 3.9 0 5.5 -0.2 1.5 -0.4 0.2 -0.4 -2.8z"/>
  <path d="M496.5 316.8 l-6 -6.3 6.3 6 c5.8 5.5 6.7 6.5 5.9 6.5 -0.1 0 -2.9 -2.8 -6.2 -6.2z"/>
  <path d="M267.3 316.5 c0 -2.2 0.2 -3 0.4 -1.7 0.2 1.2 0.2 3 0 4 -0.3 0.9 -0.5 -0.1 -0.4 -2.3z"/>
  <path d="M181.3 307 c0.2 -0.8 1 -1.5 1.7 -1.5 0.7 0 1.5 0.7 1.7 1.5 0.4 1.3 0.3 1.3 -0.6 0 -1 -1.3 -1.2 -1.3 -2.2 0 -0.9 1.3 -1 1.3 -0.6 0z"/>
  <path d="M453.3 307 c0.2 -0.8 1 -1.5 1.7 -1.5 0.7 0 1.5 0.7 1.7 1.5 0.4 1.3 0.3 1.3 -0.6 0 -1 -1.3 -1.2 -1.3 -2.2 0 -0.9 1.3 -1 1.3 -0.6 0z"/>
  <path d="M78.8 305.3 c1.2 -0.2 3 -0.2 4 0 0.9 0.3 -0.1 0.5 -2.3 0.4 -2.2 0 -3 -0.2 -1.7 -0.4z"/>
  <path d="M605.8 305.3 c1.2 -0.2 3.2 -0.2 4.5 0 1.2 0.2 0.2 0.4 -2.3 0.4 -2.5 0 -3.5 -0.2 -2.2 -0.4z"/>
  <path d="M190.5 291 c2.1 -2.2 4.1 -4 4.4 -4 0.3 0 -1.3 1.8 -3.4 4 -2.1 2.2 -4.1 4 -4.4 4 -0.3 0 1.3 -1.8 3.4 -4z"/>
  <path d="M416 283.5 c-0.7 -0.8 -0.8 -1.5 -0.2 -1.5 0.5 0 1.5 0.7 2.2 1.5 0.7 0.8 0.8 1.5 0.2 1.5 -0.5 0 -1.5 -0.7 -2.2 -1.5z"/>
  <path d="M425.7 279.3 c-0.4 -0.3 -2.4 -0.9 -4.4 -1.3 -3.6 -0.7 -3.6 -0.8 -0.7 -0.9 1.6 0 3.9 0.6 5 1.4 1 0.8 1.6 1.5 1.3 1.5 -0.3 0 -0.9 -0.3 -1.2 -0.7z"/>
  <path d="M403.9 267.3 l-3.4 -3.8 3.8 3.4 c2 1.9 3.7 3.6 3.7 3.8 0 0.8 -0.8 0 -4.1 -3.4z"/>
  <path d="M326.3 262.5 c0 -3.8 0.2 -5.3 0.4 -3.2 0.2 2 0.2 5.2 0 7 -0.2 1.7 -0.4 0.1 -0.4 -3.8z"/>
  <path d="M240.8 262.3 c3.4 -0.2 8.8 -0.2 12 0 3.1 0.2 0.3 0.3 -6.3 0.3 -6.6 0 -9.2 -0.1 -5.7 -0.3z"/>
  <path d="M348.6 257.5 c0.4 -0.8 0 -2.3 -0.7 -3.3 -1.3 -1.5 -1.2 -1.6 0.4 -0.3 1.9 1.5 2.2 3.6 0.7 4.6 -0.6 0.3 -0.7 -0.1 -0.4 -1z"/>
  <path d="M343.3 241 c0 -3.6 0.2 -5 0.4 -3.2 0.2 1.7 0.2 4.7 0 6.5 -0.2 1.7 -0.4 0.3 -0.4 -3.3z"/>
  <path d="M445.8 243.3 c3.4 -0.2 9 -0.2 12.5 0 3.4 0.2 0.6 0.3 -6.3 0.3 -6.9 0 -9.7 -0.1 -6.2 -0.3z"/>
  <path d="M173 236.5 c-1.9 -2.1 -2.1 -2.5 -0.8 -3 0.9 -0.4 3.3 -0.5 5.4 -0.2 3.6 0.3 3.5 0.4 -1 0.5 l-4.9 0.2 2.3 2.5 c1.3 1.4 2.1 2.5 1.8 2.5 -0.2 0 -1.5 -1.1 -2.8 -2.5z"/>
  <path d="M325.3 233.5 c0 -3.3 0.2 -4.5 0.4 -2.7 0.2 1.8 0.2 4.5 0 6 -0.2 1.5 -0.4 0 -0.4 -3.3z"/>
  <path d="M430.8 236.3 c1.2 -0.2 3.2 -0.2 4.5 0 1.2 0.2 0.2 0.4 -2.3 0.4 -2.5 0 -3.5 -0.2 -2.2 -0.4z"/>
  <path d="M415.8 235.3 c1.2 -0.2 3 -0.2 4 0 0.9 0.3 -0.1 0.5 -2.3 0.4 -2.2 0 -3 -0.2 -1.7 -0.4z"/>
  <path d="M409.3 225.5 c0 -3.3 0.2 -4.5 0.4 -2.7 0.2 1.8 0.2 4.5 0 6 -0.2 1.5 -0.4 0 -0.4 -3.3z"/>
  <path d="M472 230.7 c0 -0.2 1.5 -1.6 3.3 -3.3 l3.2 -2.9 -2.9 3.3 c-2.8 3 -3.6 3.7 -3.6 2.9z"/>
  <path d="M459 221.5 c3 -3 5.7 -5.5 5.9 -5.5 0.3 0 -1.9 2.5 -4.9 5.5 -3 3 -5.7 5.5 -5.9 5.5 -0.3 0 1.9 -2.5 4.9 -5.5z"/>
  <path d="M443 209.5 c1.9 -1.9 3.6 -3.5 3.9 -3.5 0.3 0 -1 1.6 -2.9 3.5 -1.9 1.9 -3.6 3.5 -3.9 3.5 -0.3 0 1 -1.6 2.9 -3.5z"/>
  <path d="M436.5 205 c2.1 -2.2 4.1 -4 4.4 -4 0.3 0 -1.3 1.8 -3.4 4 -2.1 2.2 -4.1 4 -4.4 4 -0.3 0 1.3 -1.8 3.4 -4z"/>
  <path d="M352.9 205.7 c2.9 -3.2 2.8 -3.1 2.8 -1.2 0 0.8 -0.3 1.3 -0.5 1 -0.3 -0.3 -1.5 0.3 -2.6 1.2 -1.5 1.3 -1.4 1 0.3 -1z"/>
  <path d="M535 206.7 c0 -0.2 1.5 -1.6 3.3 -3.3 l3.2 -2.9 -2.9 3.3 c-2.8 3 -3.6 3.7 -3.6 2.9z"/>
  <path d="M146.3 205.3 c0.9 -0.2 2.5 -0.2 3.5 0 0.9 0.3 0.1 0.5 -1.8 0.5 -1.9 0 -2.7 -0.2 -1.7 -0.5z"/>
  <path d="M533 200.7 c0 -0.2 1.5 -1.6 3.3 -3.3 l3.2 -2.9 -2.9 3.3 c-2.8 3 -3.6 3.7 -3.6 2.9z"/>
  <path d="M289.2 197 c0 -1.9 0.2 -2.7 0.5 -1.7 0.2 0.9 0.2 2.5 0 3.5 -0.3 0.9 -0.5 0.1 -0.5 -1.8z"/>
  <path d="M459.3 196 c0 -2.5 0.2 -3.5 0.4 -2.2 0.2 1.2 0.2 3.2 0 4.5 -0.2 1.2 -0.4 0.2 -0.4 -2.3z"/>
  <path d="M522.3 190.3 c1.5 -0.2 3.7 -0.2 5 0 1.2 0.2 0 0.4 -2.8 0.4 -2.7 0 -3.8 -0.2 -2.2 -0.4z"/>
  <path d="M492 177.8 c4.1 -4.5 5 -5.3 5 -4.5 0 0.2 -2.1 2.3 -4.7 4.7 l-4.8 4.5 4.5 -4.7z"/>
  <path d="M521.8 177.3 c1.2 -0.2 3.2 -0.2 4.5 0 1.2 0.2 0.2 0.4 -2.3 0.4 -2.5 0 -3.5 -0.2 -2.2 -0.4z"/>
  <path d="M195.3 169 c0 -3 0.2 -4.3 0.4 -2.7 0.2 1.5 0.2 3.9 0 5.5 -0.2 1.5 -0.4 0.2 -0.4 -2.8z"/>
  <path d="M186.3 163 c0 -3 0.2 -4.3 0.4 -2.7 0.2 1.5 0.2 3.9 0 5.5 -0.2 1.5 -0.4 0.2 -0.4 -2.8z"/>
  <path d="M238 155.7 c0 -0.2 1.5 -1.6 3.3 -3.3 l3.2 -2.9 -2.9 3.3 c-2.8 3 -3.6 3.7 -3.6 2.9z"/>
  <path d="M525.9 153.2 c-0.3 -2 -0.2 -2.9 0.4 -2.3 0.5 0.5 0.7 1.9 0.5 3.2 -0.3 2 -0.5 1.9 -0.9 -0.9z"/>
  <path d="M275.4 135.8 l-2.9 -3.3 3.3 2.9 c3 2.8 3.7 3.6 2.9 3.6 -0.2 0 -1.6 -1.5 -3.3 -3.2z"/>
  <path d="M351 127.9 c0 -0.3 1.9 -2.3 4.2 -4.4 2.7 -2.6 3.7 -3.2 2.9 -1.7 -0.6 1.2 -1.6 2.2 -2.2 2.2 -0.6 0 -0.7 0.6 -0.3 1.3 0.4 0.6 0.3 0.9 -0.1 0.4 -0.5 -0.4 -1.7 0 -2.7 1 -1 0.9 -1.8 1.4 -1.8 1.2z"/>
  <path d="M485.5 123 c2.1 -2.2 4.1 -4 4.4 -4 0.3 0 -1.3 1.8 -3.4 4 -2.1 2.2 -4.1 4 -4.4 4 -0.3 0 1.3 -1.8 3.4 -4z"/>
  <path d="M434.5 115 c2.1 -2.2 4.1 -4 4.4 -4 0.3 0 -1.3 1.8 -3.4 4 -2.1 2.2 -4.1 4 -4.4 4 -0.3 0 1.3 -1.8 3.4 -4z"/>
  <path d="M476 116.7 c0 -0.2 1.5 -1.6 3.3 -3.3 l3.2 -2.9 -2.9 3.3 c-2.8 3 -3.6 3.7 -3.6 2.9z"/>
  <path d="M215.9 105.3 l-3.4 -3.8 3.8 3.4 c2 1.9 3.7 3.6 3.7 3.8 0 0.8 -0.8 0 -4.1 -3.4z"/>
  <path d="M399 100.5 c1.9 -1.9 3.6 -3.5 3.9 -3.5 0.3 0 -1 1.6 -2.9 3.5 -1.9 1.9 -3.6 3.5 -3.9 3.5 -0.3 0 1 -1.6 2.9 -3.5z"/>
  <path d="M340.3 96.5 c0 -2.2 0.2 -3 0.4 -1.7 0.2 1.2 0.2 3 0 4 -0.3 0.9 -0.5 -0.1 -0.4 -2.3z"/>
  <path d="M313.8 87 c1.6 -0.7 2.2 -1.8 2.3 -4.2 0.2 -3.1 0.2 -3.2 0.6 -0.5 0.5 3.2 -1.1 5.7 -3.6 5.6 -1.1 0 -0.9 -0.3 0.7 -0.9z"/>
  <path d="M307.3 75 c0 -3 0.2 -4.3 0.4 -2.8 0.2 1.6 0.2 4 0 5.6 -0.2 1.5 -0.4 0.2 -0.4 -2.8z"/>
 </g>
</svg>